<?xml version="1.0" encoding="UTF-8"?> <svg xmlns="http://www.w3.org/2000/svg" id="Layer_1" data-name="Layer 1" viewBox="0 0 523.82 140.74"><defs><style>.cls-1{fill:#fff;}</style></defs><path class="cls-1" d="M75.67,134l2,1.45H75.2l-.72,2.24-.74-2.24H71.31l2-1.45-.77-2.3,2,1.41,2-1.41Zm-1.2,6.09c-38,0-68.76-30.4-68.76-67.91S36.49,4.31,74.47,4.31s68.77,30.4,68.77,67.91-30.79,67.91-68.77,67.91M144,71.29c0-.33,0-.67,0-1l2-.08,0-.4L146,68.4l-2,.09-.06-1,2-.17,0-.4-.11-1.39-2,.16c0-.33-.07-.66-.11-1l2-.25,0-.4-.17-1.39-2,.25c0-.33-.09-.66-.14-1l2-.33-.07-.4L145,59.82l-2,.32c-.06-.33-.12-.66-.19-1l2-.41-.09-.4L144.41,57l-2,.4c-.07-.32-.15-.65-.22-1l2-.49-.11-.39-.34-1.35-2,.48c-.09-.32-.17-.64-.27-1l2-.56-.12-.39-.4-1.34L141,52c-.1-.32-.21-.64-.31-1l1.93-.65-.13-.38L142,48.68l-1.93.65c-.12-.32-.23-.63-.35-.94l1.9-.72-.15-.38L141,46l-1.9.73c-.13-.31-.25-.62-.39-.93l1.88-.8-.16-.37-.58-1.28-1.86.8-.43-.9,1.84-.88-.18-.36-.62-1.26-1.84.88-.46-.89,1.79-.95-.19-.35-.67-1.23-1.8.95c-.16-.29-.32-.58-.49-.87l1.76-1-.21-.35-.73-1.2-1.75,1-.54-.84,1.72-1.1-1-1.51-1.71,1.09-.57-.82,1.66-1.16-.23-.33-.82-1.13-1.67,1.15-.59-.8,1.61-1.22-.25-.32-.86-1.1-1.62,1.22c-.21-.27-.42-.52-.64-.78L130,27.8l-1.18-1.38-1.56,1.28-.67-.75,1.51-1.34-.27-.3-1-1-1.51,1.35-.69-.72,1.45-1.41-.28-.29-1-1-1.45,1.41-.73-.7,1.4-1.46-.3-.27-1-1-1.39,1.47-.76-.67,1.34-1.52-.31-.26-1.08-.91-1.33,1.52-.78-.64,1.27-1.57-1.43-1.11L117,18.11l-.79-.61,1.2-1.62-.33-.23-1.15-.83-1.2,1.62-.83-.56L115,14.21l-1.52-1-1.14,1.67-.85-.54,1.06-1.71-.35-.21-1.2-.73L110,13.41l-.87-.51,1-1.75-.36-.19-1.24-.68-1,1.75c-.29-.16-.59-.31-.89-.46l.93-1.8-.37-.18L105.89,9,105,10.76l-.91-.43.85-1.83-1.67-.74-.85,1.83-.92-.4.77-1.85-1.7-.68-.77,1.86-.94-.36.69-1.88-.38-.14L97.8,5.67l-.69,1.89-1-.32.6-1.91-.38-.12L95,4.79l-.61,1.92-1-.28L94,4.49l-.4-.1L92.21,4,91.68,6l-1-.23.44-2-.4-.09-1.38-.3-.45,2-1-.2.36-2-1.79-.33-.37,2-1-.16.28-2-1.81-.25-.28,2-1-.11.19-2-1.81-.17-.2,2-1-.07.12-2-.41,0-1.41-.08-.13,2-1,0,0-2-1.83,0,0,2h-1l0-2h-.4L72,1.89l0,2-1,0-.12-2-1.82.11.12,2-1,.09-.21-2-1.81.18.2,2-1,.12-.3-2-1.8.25.29,2-1,.16-.37-2-1.8.33.37,2-1,.21-.46-2-1.78.4.46,2L57,6l-.53-1.93-1.76.47.53,1.93-1,.29L53.6,4.89l-1.74.54.61,1.91-1,.33L50.8,5.78l-1.71.62.7,1.89-.94.35-.78-1.85-1.7.69.78,1.85-.93.4L45.36,7.9,45,8.07l-1.28.59.85,1.82-.91.44-.94-1.79L41.09,10,42,11.74l-.9.47-1-1.75-1.59.88,1,1.75-.87.51-1.08-1.7L36,12.84l1.07,1.7-.85.55L35.1,13.42l-1.51,1,1.15,1.67-.83.57-1.22-1.61-1.47,1.07,1.22,1.61-.81.61-1.27-1.56-1.43,1.13,1.27,1.55-.77.64L28.09,18.6l-.31.26-1.07.93,1.34,1.5-.74.68L25.9,20.51l-.29.27-1,1L26,23.2l-.73.7-1.46-1.4-1.27,1.29L24,25.19l-.69.72-1.52-1.34-.27.3-.95,1,1.52,1.34-.66.75-1.57-1.28-.26.31-.91,1.08,1.58,1.28c-.22.26-.43.51-.63.77L18,29l-1.1,1.43,1.62,1.21-.6.81-1.67-1.15-.23.33-.81,1.14,1.67,1.15c-.19.27-.38.55-.56.83l-1.72-1.09-1,1.52,1.72,1.08c-.18.28-.35.56-.52.84l-1.77-1-.21.34-.71,1.21,1.76,1-.49.87-1.8-.94-.19.35-.67,1.24,1.8.93c-.15.3-.3.59-.44.89l-1.85-.87-.17.36L9.44,42.7l1.84.87-.41.9L9,43.68l-.16.37-.55,1.28,1.87.79c-.13.31-.26.61-.38.92l-1.91-.72-.14.38L7.21,48l1.9.72-.33.93L6.84,49l-.13.38-.45,1.32,1.94.64-.3.94-2-.55-.11.38-.39,1.35,2,.55c-.09.32-.18.63-.26.95l-2-.48-.1.39-.34,1.36,2,.48-.21,1-2-.4-.08.4-.28,1.37,2,.39-.18,1-2-.31-.06.39-.22,1.38,2,.32c0,.32-.09.65-.14,1l-2-.23,0,.4-.17,1.38,2,.24c0,.32-.07.65-.1,1l-2-.15,0,.4L3,67.56l2,.16c0,.33,0,.65-.06,1l-2.05-.08V69l-.05,1.4,2,.07c0,.33,0,.66,0,1h-2v1.8h2c0,.34,0,.68,0,1l-2,.09v.4L3,76.17,5,76.08c0,.33,0,.67.06,1l-2,.16,0,.41L3.19,79l2-.17c0,.33.07.66.11,1l-2,.25.05.4.18,1.38,2-.24c0,.33.09.66.14,1l-2,.33.07.4L4,84.75l2-.33c.06.33.12.65.19,1l-2,.41.09.39.28,1.37,2-.41c.07.33.14.66.22,1l-2,.49.1.39.35,1.35,2-.49.27,1-2,.57.12.39.41,1.34L8,92.57c.1.32.21.64.31,1l-1.93.65.13.38L7,95.87l1.93-.64c.12.31.24.62.35.93l-1.9.73.15.38L8,98.57,10,97.84c.13.31.25.62.38.92l-1.87.81.17.37.57,1.28,1.86-.81c.14.3.29.6.44.91l-1.84.87.18.36.62,1.26,1.83-.88.47.89-1.8,1,.2.36.67,1.23,1.8-1c.16.29.32.58.49.87l-1.75,1,.21.35.72,1.2,1.76-1c.17.28.35.56.53.84l-1.71,1.09,1,1.51,1.71-1.09.57.82-1.66,1.16.23.33.82,1.13,1.67-1.16.6.81-1.62,1.22,1.13,1.42,1.61-1.22.63.77L19,116.74l.26.31.92,1.07,1.56-1.29.67.75-1.52,1.35.28.3,1,1,1.51-1.35.69.72L22.89,121l.29.29,1,1,1.45-1.41.73.69L25,123.07l1.34,1.22,1.39-1.46.76.66L27.12,125l.31.26,1.07.91,1.34-1.52c.25.21.51.43.78.63l-1.27,1.58.32.24,1.11.88,1.27-1.58c.27.2.53.41.8.6l-1.19,1.62.33.24,1.14.82,1.2-1.62.83.56L34,130.3l1.52,1,1.13-1.67.85.53-1.06,1.71.35.22,1.21.73,1.07-1.72.86.5-1,1.75.36.2,1.25.68,1-1.76c.29.16.59.31.89.46l-.92,1.79.36.18,1.28.63.91-1.79.91.43L44.16,136l.38.17,1.29.57.84-1.82.92.39-.76,1.86.38.15,1.32.52.76-1.86.94.35-.68,1.89.38.13,1.34.47.68-1.88,1,.31-.61,1.91,1.75.53.6-1.91,1,.28L55.1,140l.39.11,1.38.36.52-1.94,1,.23-.45,2,1.79.39.45-2,1,.19-.36,2,.4.07,1.4.25.36-2,1,.16-.28,2,1.81.26.28-2,1,.12-.2,2,.41,0,1.41.14.2-2,1,.08-.12,2,1.83.1.11-2,1,0,0,2h.41l1.42,0,0-2h.74l0,2h.4l1.42,0,0-2,1,0,.13,2,1.83-.1-.13-2,1-.08.21,2,1.82-.18-.21-2,1-.12.28,2,.4-.06,1.41-.19-.28-2,1-.17.36,2,.4-.07,1.4-.25-.37-2,1-.21.45,2,1.79-.4-.45-2c.33-.08.66-.15,1-.24l.53,1.93,1.77-.46L93.63,138l1-.28.61,1.92.39-.13,1.36-.42-.62-1.91,1-.33.7,1.89.38-.13,1.35-.48L99,136.2l.95-.35.77,1.85.37-.15,1.32-.53-.77-1.86.93-.4.85,1.82.37-.16,1.3-.58-.86-1.82.92-.44.92,1.78.37-.18,1.26-.63-.92-1.79.89-.46,1,1.74.36-.19,1.24-.69-1-1.75.87-.5,1.08,1.71.34-.21,1.22-.74L111.74,130l.85-.54,1.15,1.66.33-.22,1.18-.78-1.15-1.66.84-.58,1.21,1.62.32-.24,1.15-.83-1.21-1.61.81-.61,1.27,1.57,1.43-1.13-1.28-1.56.78-.64,1.34,1.51.31-.26,1.07-.92-1.34-1.51.75-.67L123,124l.3-.27,1-1-1.4-1.46.72-.7,1.46,1.4.28-.28,1-1-1.46-1.4.69-.73,1.52,1.34.27-.29,1-1-1.51-1.35.66-.74,1.57,1.28.26-.31.91-1.08-1.58-1.28.64-.77,1.62,1.22.24-.32.87-1.11L130.36,113l.6-.8,1.67,1.15.23-.33.82-1.14L132,110.67l.56-.82,1.72,1.08,1-1.51-1.72-1.08c.18-.28.36-.56.53-.84l1.76,1,.2-.35.73-1.2-1.77-1,.5-.86,1.8.94.19-.35.66-1.24-1.79-.94.45-.89,1.84.87.17-.36.62-1.26-1.84-.86.42-.9,1.87.79.16-.37.57-1.28-1.88-.79c.13-.31.26-.61.38-.92l1.91.72.15-.38.5-1.3-1.9-.72c.12-.31.23-.62.34-.93l1.93.64.13-.38.46-1.32-1.94-.65c.11-.31.21-.62.31-.94l1.95.57.11-.39.41-1.34-2-.56c.09-.32.17-.64.26-1l2,.48.1-.39.34-1.35-2-.49c.08-.32.15-.64.22-1l2,.4.08-.39.29-1.37-2-.4.18-1,2,.32.06-.39.24-1.39-2-.32c.05-.32.1-.65.14-1l2,.24,0-.4.16-1.38-2-.25c0-.32.07-.65.1-1l2,.16,0-.4.11-1.4-2-.16.06-1,2,.08v-.4l.06-1.4-2-.08c0-.33,0-.65,0-1h2v-1.8ZM74.47,109.51a37.29,37.29,0,1,1,0-74.58c20.85,0,37.76,16.7,37.76,37.29s-16.91,37.29-37.76,37.29m38.61-37.29c0-2.15,1.37-3,1.28-4.87a39.21,39.21,0,0,0-8.21-19.56c-1.26-1.36-2.84-1-4.38-2.53s-1.19-3.08-2.57-4.33a40.25,40.25,0,0,0-19.8-8.11c-1.88-.09-2.75,1.27-4.93,1.27s-3-1.36-4.93-1.27a40.25,40.25,0,0,0-19.8,8.11c-1.38,1.25-1,2.81-2.57,4.33s-3.12,1.17-4.38,2.53a39.3,39.3,0,0,0-8.21,19.56c-.09,1.86,1.28,2.72,1.28,4.87s-1.37,3-1.28,4.87a39.23,39.23,0,0,0,8.21,19.55c1.26,1.37,2.84,1,4.38,2.54s1.19,3.08,2.57,4.33a40.25,40.25,0,0,0,19.8,8.11c1.88.08,2.75-1.27,4.93-1.27s3,1.35,4.93,1.27a40.25,40.25,0,0,0,19.8-8.11c1.38-1.25,1-2.81,2.57-4.33s3.12-1.17,4.38-2.54a39.14,39.14,0,0,0,8.21-19.55c.09-1.86-1.28-2.72-1.28-4.87m16.61,0c0,30.07-24.77,54.53-55.22,54.53S19.25,102.29,19.25,72.22,44,17.68,74.47,17.68s55.22,24.46,55.22,54.54m.59,0c0-30.39-25-55.12-55.81-55.12s-55.8,24.73-55.8,55.12,25,55.11,55.8,55.11,55.81-24.72,55.81-55.11M74.47,128.17a57.25,57.25,0,0,0,40.27-16.39,55.25,55.25,0,0,0,0-79.12,57.67,57.67,0,0,0-80.54,0,55.25,55.25,0,0,0,0,79.12,57.27,57.27,0,0,0,40.27,16.39m0,.59c-31.78,0-57.54-25.31-57.54-56.54S42.69,15.68,74.47,15.68,132,41,132,72.22s-25.77,56.54-57.55,56.54M11.27,74.53l-2.36-.22L9,67.52l2.36-.14v.69h-.08a2.48,2.48,0,0,0-1.12.45,1.41,1.41,0,0,0-.6,1.12v0a.35.35,0,0,0,0,.2s.05,0,.15,0L14,70h0c.13,0,.17,0,.2-.06a1,1,0,0,0,.06-.43l0-.66H15l-.08,4.31h-.62v-.74a.66.66,0,0,0-.06-.37S14.11,72,14,72l-4.24-.08h0c-.09,0-.11,0-.12,0a.5.5,0,0,0,0,.25v0a1.4,1.4,0,0,0,.56,1.12,2.69,2.69,0,0,0,1.1.49h.08v.68ZM15.1,98.29l.2.51-.1,0-.49.19L13.25,95.2l.09,0,.49-.18,0,.09.16.41a1.4,1.4,0,0,0,.17.35l.11.06a.54.54,0,0,0,.18,0L16,95.3,15.11,93l-1.52.56a.37.37,0,0,0-.16.09l0,.1a1.34,1.34,0,0,0,.1.39l.2.5-.59.22L11.64,91l.09,0,.5-.18,0,.09.16.42a2.05,2.05,0,0,0,.17.34l.12.07.17,0,3.83-1.43a.37.37,0,0,0,.16-.09l0-.1a1.27,1.27,0,0,0-.1-.39l-.2-.51.1,0,.49-.18,1.46,3.81-.09,0-.5.18,0-.09-.16-.41a1.4,1.4,0,0,0-.17-.35l-.12-.06a.54.54,0,0,0-.17,0l-1.68.63.89,2.34,1.68-.63a.43.43,0,0,0,.17-.09l0-.1a1.48,1.48,0,0,0-.11-.39l-.19-.5.09,0,.49-.18,1.46,3.81-.09,0-.4.16-.09,0,0-.09-.16-.42a1.16,1.16,0,0,0-.17-.34l-.11-.07a.62.62,0,0,0-.18.05L15.2,97.71a.82.82,0,0,0-.17.09l0,.1a1.34,1.34,0,0,0,.1.39M9.77,65.1,9.25,65l1.16-6.85,2.26.3v.1l-.09.57H12.5a2.45,2.45,0,0,0-1.34.58,2.85,2.85,0,0,0-.64,1.57,3,3,0,0,0-.06.5.38.38,0,0,0,.08.29.57.57,0,0,0,.29.12l1.44.24v-.1a1.71,1.71,0,0,0,0-.31,1.12,1.12,0,0,0-.85-1.14l-.09,0,0-.08.1-.61,3,.44,0,.1-.11.65h-.25a1.24,1.24,0,0,0-1.18,1.18v0l1.71.28.17,0c.11,0,.14,0,.21-.15a3.14,3.14,0,0,0,.2-.81,4.16,4.16,0,0,0,.06-.67,2,2,0,0,0-1.29-1.94l-.07,0,0-.07.14-.59,2.25.5L15.11,66,15,66l-.42-.07h-.1v-.1l.08-.43a2.36,2.36,0,0,0,0-.32c0-.11,0-.15,0-.17a.33.33,0,0,0-.19-.06l-4-.67-.14,0c-.07,0-.09,0-.13.07a1,1,0,0,0-.11.4l-.09.53ZM11.51,88l.11.53-.09,0-.52.1-1.39-6.8,2.22-.52,0,.1L12,82l-.06,0a1.91,1.91,0,0,0-1.17,1.8,4.22,4.22,0,0,0,.11.92,2,2,0,0,0,.19.62.25.25,0,0,0,.25.13l.18,0,1.43-.29,0-.09A1.19,1.19,0,0,0,11.66,84h-.17V84l-.13-.61,2.92-.63,0,.1.13.64-.09,0a1.1,1.1,0,0,0-.86,1.17,1.72,1.72,0,0,0,0,.39v0l1.69-.34a.43.43,0,0,0,.25-.09s.07-.08.07-.22a4.08,4.08,0,0,0-.12-.76,2.53,2.53,0,0,0-.7-1.46,2.6,2.6,0,0,0-1.39-.55h-.08v-.08l-.08-.6,2.29-.33,1.4,6.87-.1,0-.42.08-.09,0,0-.09-.09-.44a1.21,1.21,0,0,0-.13-.39c0-.06-.05-.06-.12-.06h-.14l-4,.81a.44.44,0,0,0-.19.06s0,.06,0,.16a3.14,3.14,0,0,0,0,.33m0-32.19-.5-.16,1.18-3.56.59.19,0,.09,0,.14a1.75,1.75,0,0,0-.09.4V53h0a.39.39,0,0,0,.18-.06h0l1.39-.6a9.48,9.48,0,0,0-.52-1c-.12-.19-.18-.22-.2-.23h-.06c-.07,0-.15,0-.24.18a2,2,0,0,0-.28.59l0,.1-.09,0-.51-.16,1-3.14.1,0,.5.17,0,.09a1.57,1.57,0,0,0-.09.51,2.28,2.28,0,0,0,.3,1l.83,1.66,2.73-1.19c.49-.23.59-.32.76-.78l0-.09.59.19-1.2,3.62-.6-.2,0-.09.07-.21a1,1,0,0,0,.08-.33v-.06h0a.75.75,0,0,0-.24.08l-1.48.64c.29.57.46.9.57,1.08s.16.21.25.24h.06a.31.31,0,0,0,.22-.13,1.32,1.32,0,0,0,.24-.48l.12-.36.1,0,.5.17-1.11,3.31-.5-.16-.09,0,0-.09a2.24,2.24,0,0,0,.08-.57A1.44,1.44,0,0,0,16,56l-1-2.07-2.9,1.27h0a.69.69,0,0,0-.29.2,1.48,1.48,0,0,0-.2.39l0,.08Zm8.32-18.65a3.52,3.52,0,0,1,.74-2A3.71,3.71,0,0,1,21.91,34v-.67l.31-.42,2,1.18-.39.55-.06,0a3.33,3.33,0,0,0-.56-.05A2.62,2.62,0,0,0,21,35.67a1.86,1.86,0,0,0-.38,1,.51.51,0,0,0,.22.47.45.45,0,0,0,.28.09c.2,0,.49-.13.89-.54l.89-.9A3.18,3.18,0,0,1,25,34.59a1.59,1.59,0,0,1,.92.31,1.68,1.68,0,0,1,.71,1.45,3.29,3.29,0,0,1-.69,1.88,4,4,0,0,1-1.62,1.41l0,.77,0,0-.32.43-2-1.26L22,39.55l.06-.08.33-.46.06,0a3.83,3.83,0,0,0,.6,0,2.91,2.91,0,0,0,2.41-1.17,1.94,1.94,0,0,0,.39-1,.6.6,0,0,0-.26-.54.62.62,0,0,0-.33-.11,1.36,1.36,0,0,0-.85.52l-.72.75a3.46,3.46,0,0,1-2.31,1.3,1.42,1.42,0,0,1-.82-.25,1.59,1.59,0,0,1-.7-1.37m-2.49,7.21h1.87l-.78,1.53Zm1.62,4.17a1.18,1.18,0,0,1-.11.5l0,.09.46.23.09,0,0-.09,1.37-2.69-.48-.24-.08,0-.05.09a2.35,2.35,0,0,1-.32.48.48.48,0,0,1-.33.17l-.15,0a1.62,1.62,0,0,1-.51-.54L20,44.36h.85a.89.89,0,0,1,.26,0l.05.09a.54.54,0,0,1-.08.27l-.15.28,0,.08.47.24.09,0,1.69-3.32-.48-.23-.08,0-.05.08a1.19,1.19,0,0,1-.36.49.91.91,0,0,1-.5.09L16,42.61l-.39.78,2.9,4.14a1.8,1.8,0,0,1,.39,1M137.26,88.9l.5.17-2.22,6.58L133.35,95l0-.1.18-.53h.07a2.43,2.43,0,0,0,1.41-.37,2.85,2.85,0,0,0,.88-1.46,2,2,0,0,0,.14-.61.28.28,0,0,0-.06-.2.64.64,0,0,0-.25-.13l-1.38-.45,0,.08a1.58,1.58,0,0,0-.1.53,1.14,1.14,0,0,0,.69,1l.07,0,0,.08-.2.59-2.85-.9,0-.09.21-.62.09,0a1,1,0,0,0,.33,0,1.29,1.29,0,0,0,1.18-1v0l-1.63-.54a.91.91,0,0,0-.22,0c-.08,0-.12,0-.21.15a4,4,0,0,0-.29.74,3.2,3.2,0,0,0-.2,1,2.14,2.14,0,0,0,1,1.73l.06,0,0,.07-.23.56-2.15-.84,2.25-6.65.09,0,.41.14.09,0,0,.09-.14.42a1.46,1.46,0,0,0-.09.38c0,.07,0,.09,0,.11a.44.44,0,0,0,.17.08l3.88,1.28.17,0,.12-.07a1.52,1.52,0,0,0,.15-.36l.18-.51ZM139.57,72a3.48,3.48,0,0,1,.44,1.82V74a3.61,3.61,0,0,1-.48,1.73l.36.54v0l0,.52-2.3.08v-.11l0-.56.06,0a2.67,2.67,0,0,0,1.74-2.35v-.07a2,2,0,0,0-.18-.86.57.57,0,0,0-.51-.38h0a.47.47,0,0,0-.39.18,1.89,1.89,0,0,0-.33.83l-.24,1.24a4,4,0,0,1-.73,1.8,1.55,1.55,0,0,1-1.26.57h-.06c-1,0-1.87-1-1.87-2.64v-.14a4.08,4.08,0,0,1,.58-2l-.45-.63v0l0-.54h2.46v.1l0,.56-.06,0a3,3,0,0,0-1.9,2.56v.08a2,2,0,0,0,.19.91.66.66,0,0,0,.57.4h0a.57.57,0,0,0,.46-.22,1.8,1.8,0,0,0,.28-.77l.19-1a4.4,4.4,0,0,1,.79-2,1.54,1.54,0,0,1,1.2-.61h0a1.63,1.63,0,0,1,1.39.83m-24.82,49.15-2,1.45.76,2.3-2-1.42-2,1.42.77-2.3-2-1.45h2.44l.74-2.24.72,2.24Zm-74.21,0-2,1.45.77,2.3-2-1.42-2,1.42.77-2.3-2-1.45h2.43l.74-2.24.72,2.24ZM21.65,99.46l2.18,3.74-.09,0-.37.21-.09.05-.33-.57a2.59,2.59,0,0,0-.21-.31l-.12-.06a.42.42,0,0,0-.18.07l-3.68,2.08-.1.07v0s0,.1.09.22a1.5,1.5,0,0,0,1.39.72,2.89,2.89,0,0,0,.88-.15l.08,0,0,.07.3.52-2.14,1-3.42-5.91,2-1.3.05.09.29.49-.07.06a2.13,2.13,0,0,0-.84,1.54,1.36,1.36,0,0,0,.18.68l.12.17.06,0,.13,0,3.68-2.08a.64.64,0,0,0,.14-.1l0-.08a1.1,1.1,0,0,0-.17-.4l-.33-.58.09-.05ZM32.59,27l-1.27,1.16-.49-1.8ZM31,30.35a1.19,1.19,0,0,1-.37.91l-.06.07.36.38.06.07.08-.07,2.24-2-.43-.46-.07.07a1.3,1.3,0,0,1-.73.41.33.33,0,0,1-.25-.12h0a1.45,1.45,0,0,1-.27-.68l1.79-1.65.79.3a.78.78,0,0,1,.23.13l0,.06s0,.14-.19.26l-.23.22-.07.07.35.38.07.07,2.76-2.53-.36-.38-.06-.07-.07.07c-.3.25-.45.33-.62.33a1.34,1.34,0,0,1-.4-.09l-5.27-1.81-.65.59,1.25,4.88a2.64,2.64,0,0,1,.09.63M134,98.17l.46.25-1.62,3-3.68-.24,2.27,2.83-1.66,3.06-.09,0-.46-.24,0-.09.23-.42a1.21,1.21,0,0,0,.16-.4l0-.09a.44.44,0,0,0-.15-.09l-3.59-1.92c-.09,0-.15-.07-.19-.06l-.12.06a1.86,1.86,0,0,0-.2.31l-.27.5-.09,0-.47-.25,2-3.61.09,0,.46.24,0,.09-.21.39a.87.87,0,0,0-.16.4l0,.09.15.09,3.47,1.85L127,99.74l0,0,.27-.51,5.27.38-2.81-1.49a1.45,1.45,0,0,0-.64-.2c-.25,0-.46.12-.67.5l-.11.22-.09,0-.46-.25,1.47-2.71.08,0,.38.2.09,0-.05.09a1.35,1.35,0,0,0-.2.61c0,.25.13.45.53.67l3.07,1.62a.44.44,0,0,0,.19.07l.11-.06a1.86,1.86,0,0,0,.2-.31l.25-.45Zm3.22-18.82,2.29.58-1.18,6.69L136,86.4l0-.11.1-.56h.11a2.62,2.62,0,0,0,1.17-.29,1.4,1.4,0,0,0,.75-1,1.15,1.15,0,0,0,0-.16c0-.07,0-.09,0-.1s0,0-.13,0l-4.17-.72h-.14a.13.13,0,0,0-.13.06,1.09,1.09,0,0,0-.11.4l-.12.65-.1,0-.52-.08.75-4.26.1,0,.42.07.1,0,0,.09-.09.56a1.52,1.52,0,0,0,0,.32c0,.1,0,.14.05.16s.09.05.19.07l4.18.71h.09l.07,0a.61.61,0,0,0,.07-.23,1,1,0,0,0,0-.24,1.91,1.91,0,0,0-1.41-1.62l-.07,0v-.08ZM108.39,18.07a1,1,0,0,1,.15-.2l.12-.05a1.83,1.83,0,0,1,.68.34c.54.34.82.65.81,1a.94.94,0,0,1-.16.48.82.82,0,0,1-.73.42,2.88,2.88,0,0,1-1.42-.57l-.25-.16ZM103.51,20l-.28.43-.06.08.09.06,3.44,2.18.28-.44,0-.08-.51-.33a2.84,2.84,0,0,1-.29-.21l-.06-.12a.38.38,0,0,1,.08-.19l1-1.53.36.23a2.19,2.19,0,0,1,.54.43.7.7,0,0,1,.17.42,2.14,2.14,0,0,1-.44,1,1.43,1.43,0,0,0-.25.77,1.7,1.7,0,0,0,.94,1.35,2.28,2.28,0,0,0,1.17.4,1.36,1.36,0,0,0,1.17-.69l.06-.09-.51-.32-.07,0-.06.07c-.25.31-.43.41-.53.41l-.15-.05c-.07-.06-.09-.07-.09-.17a2.12,2.12,0,0,1,.14-.56,3,3,0,0,0,.18-.91,1.63,1.63,0,0,0-.41-1.06,3.1,3.1,0,0,0,1.19.28,1.22,1.22,0,0,0,1.08-.52,1.2,1.2,0,0,0,.22-.69c0-.62-.46-1.31-1.62-2.05l-4-2.51-.29.44-.06.08.47.29a1.28,1.28,0,0,1,.28.22l.07.12a.56.56,0,0,1-.08.18l-2.22,3.4-.1.13-.08,0a1,1,0,0,1-.41-.19l-.38-.23Zm31.89,33.7a2.18,2.18,0,0,1,.43-.05,1.77,1.77,0,0,1,1.34.67,4,4,0,0,1,.78,1.59,4.19,4.19,0,0,1,.13,1,3.75,3.75,0,0,1-.1.82l.49.42v0l.13.5-2.19.7,0-.1-.13-.54.05,0a2.78,2.78,0,0,0,1.08-2.12,2.7,2.7,0,0,0-.08-.62,2.06,2.06,0,0,0-.36-.76.69.69,0,0,0-.54-.33h-.12a.53.53,0,0,0-.31.22,1.33,1.33,0,0,0-.13.64c0,.1,0,.2,0,.32l.11,1.26c0,.22,0,.42,0,.61a3,3,0,0,1-.33,1.52,1.54,1.54,0,0,1-1,.71,1.75,1.75,0,0,1-.4,0c-.9,0-1.8-.75-2.17-2.21a4.5,4.5,0,0,1-.16-1.17,3.32,3.32,0,0,1,.14-1l-.62-.48v0l-.13-.52,2.27-.66.1,0,0,.1.14.54-.05,0a3.07,3.07,0,0,0-1.19,2.33,2.46,2.46,0,0,0,.08.65,2.28,2.28,0,0,0,.38.8.77.77,0,0,0,.58.34l.16,0a.57.57,0,0,0,.36-.25,1.17,1.17,0,0,0,.11-.57,1.94,1.94,0,0,0,0-.33l-.09-1a5.76,5.76,0,0,1,0-.69c0-1.4.52-2.15,1.26-2.34M95.28,16.27l.41.18a.93.93,0,0,0,.4.12l.1,0a.94.94,0,0,0,.08-.15l1.65-3.7a.46.46,0,0,0,.06-.18l-.07-.11a1.5,1.5,0,0,0-.33-.18l-.5-.22,0-.09.2-.48,6.44,2.79-.85,2.1-.09,0-.53-.23V16c0-.11,0-.21,0-.3a2,2,0,0,0-.32-1.22,3.16,3.16,0,0,0-1.32-.91,1.74,1.74,0,0,0-.65-.19.2.2,0,0,0-.17.06.59.59,0,0,0-.15.22L99.11,15l.09,0a1.6,1.6,0,0,0,.64.15,1.14,1.14,0,0,0,1-.59l0-.07.07,0,.58.24-1.17,2.72-.09,0-.61-.26,0-.09a1.19,1.19,0,0,0,.08-.41,1.3,1.3,0,0,0-.9-1.15h0l-.69,1.56a.69.69,0,0,0-.08.23c0,.07,0,.11.15.21a4.15,4.15,0,0,0,.7.34,3.12,3.12,0,0,0,1.23.31,2.24,2.24,0,0,0,1.64-.84l.06,0,.06,0,.54.27-1,2L94.94,16.8l0-.09.18-.39,0-.09Zm-8-7-.09,0,0-.09.11-.41,0-.09,3.74,1,0,.09-.13.5-.1,0-.49-.13a.58.58,0,0,0-.19,0h0v0h0v.07a1.23,1.23,0,0,0,0,.17l.72,3.38,2-2.3a.54.54,0,0,0,.12-.22V11.1a.43.43,0,0,0-.18-.3,1.07,1.07,0,0,0-.44-.22l-.26-.06,0-.1.13-.51,3.12.83,0,.09-.14.5-.09,0a1.63,1.63,0,0,0-.31,0,1.77,1.77,0,0,0-1.28.66l-3.35,3.58-.92-.25L88.13,10a1,1,0,0,0-.22-.53,1.38,1.38,0,0,0-.59-.25M130.69,40l0-.09.08,0,.39-.19.09,0,1.72,3.38-.08,0-.48.23,0-.08-.1-.2a2.26,2.26,0,0,0-.18-.3L132,42.7h0s-.07.06-.17.26l-.85,1.81,1.55.23.25,0a.19.19,0,0,0,.13,0c.09,0,.12-.1.12-.22a1.75,1.75,0,0,0-.23-.68l0-.09.09,0,.47-.24,1.43,2.81-.09,0-.46.23,0-.07a1.84,1.84,0,0,0-1.51-.89l-2.18-.38-1.49.75h0a.49.49,0,0,0-.15.09l0,.08a1.07,1.07,0,0,0,.15.41l.28.56-.08,0-.48.24-1.93-3.78.09,0,.47-.23,0,.08.23.45a1.28,1.28,0,0,0,.2.32l.11.06a.3.3,0,0,0,.19-.06l1.4-.7L130.72,41a1.13,1.13,0,0,0,.14-.44,1.17,1.17,0,0,0-.17-.49m-6.64-6.59,2-1.2L130,37.82l-1.83,1.48-.06-.08-.34-.48.06-.05a2.24,2.24,0,0,0,.71-1.49,1.31,1.31,0,0,0-.25-.78h0l-.13-.16-.06,0a.25.25,0,0,0-.13.06l-3.47,2.4-.13.11,0,.08a1,1,0,0,0,.21.4l.38.54-.51.35-2.52-3.53.09,0,.35-.25.08-.06.06.08.33.47a2,2,0,0,0,.22.27l.13.06a.55.55,0,0,0,.19-.09l3.47-2.41c.09-.06.1-.09.1-.11a.51.51,0,0,0-.12-.22h0a1.46,1.46,0,0,0-1.25-.59,2.55,2.55,0,0,0-1.07.24l-.07,0,0-.07Zm-2.47-5.31-.36-.4.07-.06.39-.35,2.77,3-.08.07-.39.35-.07-.07-.3-.33c-.2-.23-.32-.3-.37-.3s-.1,0-.19.12l-3,2.7c-.1.09-.13.15-.13.19s.06.17.25.39l.37.4-.07.06-.39.35-2.77-3,.07-.06.4-.35.06.07.3.33c.21.23.33.3.38.29s.09,0,.19-.11l3-2.7c.1-.1.14-.15.13-.19s-.06-.18-.25-.39m-10.15-2.06,1.49-1.81.06-.08.08.07.42.36,0,.07a3.44,3.44,0,0,0-.13.94,2.76,2.76,0,0,0,.93,2.13,1.85,1.85,0,0,0,1.09.51.59.59,0,0,0,.47-.21.56.56,0,0,0,.16-.36,1.47,1.47,0,0,0-.44-.84l-.68-.79a3.71,3.71,0,0,1-1.07-2.23,1.4,1.4,0,0,1,.35-.95,1.6,1.6,0,0,1,1.24-.56,3.45,3.45,0,0,1,2.13,1,3.74,3.74,0,0,1,1,1.46l.65.07,0,0,.4.34L118.22,27l-.08-.07-.42-.37,0-.06a3,3,0,0,0,.13-.86,2.52,2.52,0,0,0-.87-1.95,1.78,1.78,0,0,0-1-.49.52.52,0,0,0-.41.17.45.45,0,0,0-.12.32,1.45,1.45,0,0,0,.45.88l.81,1a3.39,3.39,0,0,1,1,2,1.54,1.54,0,0,1-.43,1.05,1.7,1.7,0,0,1-1.3.55,3.29,3.29,0,0,1-2.06-.89,4,4,0,0,1-1.23-1.75l-.78-.05,0,0Zm27.15,35.21.43,0h.09l.42,3.77h-.1l-.52.06V65l0-.22a1.41,1.41,0,0,0-.07-.38l0-.05h0s-.09,0-.24.19l-1.44,1.4,1.36.75a.9.9,0,0,0,.35.14h0a.21.21,0,0,0,.18-.15,1.09,1.09,0,0,0,.06-.4,2,2,0,0,0,0-.34v-.1h.1l.52-.06.35,3.13h-.1l-.51.06,0-.09c-.16-.69-.38-.92-1.11-1.35l-1.9-1.11-1.66.18a.34.34,0,0,0-.21.06.33.33,0,0,0-.05.22c0,.07,0,.15,0,.25l.07.63-.63.07-.46-4.21h.1l.52-.05v.1l.06.5a1,1,0,0,0,.1.41s0,.06.14.06h.11l1.56-.16,2.2-2.16c.25-.26.32-.34.32-.61,0-.08,0-.17,0-.28V61.3ZM38.28,18.79a.73.73,0,0,1,.42-.14.66.66,0,0,1,.53.29.86.86,0,0,1,.15.46,1.29,1.29,0,0,1-.33.76,4.11,4.11,0,0,1-.63-.27,1.16,1.16,0,0,1-.36-.26A.54.54,0,0,1,38,19.3a.62.62,0,0,1,.33-.51M41,22.55a1.24,1.24,0,0,1-.39.4,1.55,1.55,0,0,1-.88.27,1.7,1.7,0,0,1-1.29-.58.63.63,0,0,1-.11-.36,1.07,1.07,0,0,1,.13-.46,11.6,11.6,0,0,0,2.54.73m-3.11-1A3.44,3.44,0,0,0,37,23.46a1.23,1.23,0,0,0,.21.7,1.5,1.5,0,0,0,1.28.63,3,3,0,0,0,1.65-.58,4.39,4.39,0,0,0,1.53-1.62h.07a2.94,2.94,0,0,0,1.55-.46,1.78,1.78,0,0,0,1-1.54,2.3,2.3,0,0,0-.14-.75l0-.1-.55.24-.09,0,0,.09a.77.77,0,0,1,.08.34.61.61,0,0,1-.3.53.9.9,0,0,1-.52.13,2.4,2.4,0,0,1-.48-.06,6,6,0,0,0,.1-1,1.46,1.46,0,0,1,.11-.7A1.54,1.54,0,0,1,43,18.8l.07-.06-.27-.4,0-.08-.08.06-2.39,1.57.27.4.06.08.2-.13a1,1,0,0,1,.53-.21.21.21,0,0,1,.2.1.51.51,0,0,1,.09.35,2.16,2.16,0,0,1-.05.44c-.65-.17-1.29-.34-1.92-.55a2.78,2.78,0,0,0,.8-1.61.88.88,0,0,0-.16-.53,1,1,0,0,0-.91-.44,2.6,2.6,0,0,0-1.41.5,2.34,2.34,0,0,0-1.23,1.81,1.36,1.36,0,0,0,.24.76,2.09,2.09,0,0,0,.88.69m6.19-6.32-.21-.48L47,13.4l2.74,2.45V12.23L53,10.85l0,.09.21.48-.09,0-.44.19a1.13,1.13,0,0,0-.33.18l-.07.12a.68.68,0,0,0,0,.17L54,15.82A1.13,1.13,0,0,0,54,16l.1,0a1.38,1.38,0,0,0,.4-.12l.53-.23,0,.09.21.48-3.81,1.64,0-.09-.21-.48.09,0,.41-.18a1.13,1.13,0,0,0,.33-.18l.07-.11a.62.62,0,0,0,0-.18L50.54,13v5.24l0,0-.53.23L46.06,15l1.27,2.89a1.72,1.72,0,0,0,.32.51.58.58,0,0,0,.42.16,1.25,1.25,0,0,0,.48-.11l.22-.1,0,.09.22.48-2.85,1.23,0-.09L46,19.68l0-.09.09,0c.46-.2.67-.4.68-.72a1.19,1.19,0,0,0-.13-.49l-1.38-3.15a.88.88,0,0,0-.09-.16L45,15a1.21,1.21,0,0,0-.4.13l-.48.2Zm29.49-1.89H70.42v-.62h.09a1.3,1.3,0,0,0,.85-.2c.13-.11.18-.31.18-.67l0-3.38a1.39,1.39,0,0,0-1-.37h-.1V7.46l2.76,0L77,11V9a.92.92,0,0,0-.17-.67,1.41,1.41,0,0,0-.85-.2H75.9V7.49H79v.62h-.09a1.3,1.3,0,0,0-.85.2c-.13.11-.18.32-.18.68l0,4.45h-.8L72.45,9.11v2.75c0,.35,0,.55.17.66a1.39,1.39,0,0,0,.85.21h.1v.61ZM59.91,9.05l0-.1L64,8.31V8.4l.08.52H64L63.53,9a1.26,1.26,0,0,0-.41.12c-.06,0-.06.05-.07.12l0,.13.49,3.08a1,1,0,0,0,.37.67,1.45,1.45,0,0,0,.93.27,3.86,3.86,0,0,0,.55-.05,2.22,2.22,0,0,0,1.09-.45,1.21,1.21,0,0,0,.42-.92,1.39,1.39,0,0,0,0-.27l-.36-2.26a1.23,1.23,0,0,0-.22-.6.65.65,0,0,0-.52-.16l-.42,0h-.1l0-.09-.08-.51,3.07-.49v.1l.09.51-.1,0a1.14,1.14,0,0,0-.7.29.68.68,0,0,0-.18.52,1.69,1.69,0,0,0,0,.3l.35,2.2a2.87,2.87,0,0,1,0,.39,1.84,1.84,0,0,1-.85,1.57,4.54,4.54,0,0,1-1.85.66,8,8,0,0,1-1.21.11,2.82,2.82,0,0,1-1.58-.38,1.63,1.63,0,0,1-.71-1.16l-.49-3.07a.53.53,0,0,0-.07-.2s-.07,0-.18,0l-.31,0L60,9.56l0-.1Zm24.66,5.11-4.08-.55v-.09l.06-.42V13h.1l.44.06.29,0a.38.38,0,0,0,.2,0,.42.42,0,0,0,.06-.2l.55-4h0V8.72c0-.08,0-.09-.07-.13a1.16,1.16,0,0,0-.41-.1l-.54-.08,0-.09.07-.52,4.08.55v.1L85.29,9h-.1l-.44-.06a1.58,1.58,0,0,0-.28,0c-.13,0-.18,0-.21.05a.45.45,0,0,0-.06.2l-.55,4v.11c0,.09,0,.1.07.14a.93.93,0,0,0,.41.1l.54.08v.09ZM81.15,120.45h.18a4.63,4.63,0,0,0,.13,1.16,1.43,1.43,0,0,0,.37.72.52.52,0,0,0,.35.14h0a.48.48,0,0,0,.34-.13.85.85,0,0,0,.24-.37,3.15,3.15,0,0,0,.17-1.11h0a4.45,4.45,0,0,0-.1-.92,1.6,1.6,0,0,0-.36-.74.48.48,0,0,0-.36-.15h0a.61.61,0,0,0-.54.27,2.08,2.08,0,0,0-.24,1.13Zm3.41-.28h0a4.17,4.17,0,0,1-.62,2.31,2.19,2.19,0,0,1-1.85,1h0a2.4,2.4,0,0,1-1.15-.3,2.23,2.23,0,0,1-.77-.84,5.88,5.88,0,0,1-.56-2.85v0h0a5.71,5.71,0,0,1,1.65-4.27,3.53,3.53,0,0,1,1.1-.75,3.39,3.39,0,0,1,1.25-.22h.08l.46.4.14.12-.33.43h-.11l-.2,0a2.06,2.06,0,0,0-1.81,1.3,5.37,5.37,0,0,0-.41,1.7,1.92,1.92,0,0,1,.29-.28,1.66,1.66,0,0,1,1-.35h0a1.64,1.64,0,0,1,.83.23,1.73,1.73,0,0,1,.56.61,3.45,3.45,0,0,1,.42,1.78m-14-3.89a1.12,1.12,0,0,0,.28.77,2.14,2.14,0,0,0,.64.46h0l.34.18a1.65,1.65,0,0,0,.48-1.15h0a1.53,1.53,0,0,0-.25-.92.79.79,0,0,0-.65-.33h0a.78.78,0,0,0-.59.24,1,1,0,0,0-.25.74Zm1.49,5.78a1.6,1.6,0,0,0,.28-.93h0a1.47,1.47,0,0,0-.28-.93,2.31,2.31,0,0,0-.72-.56l-.52-.28a2.25,2.25,0,0,0-.41.61,2.17,2.17,0,0,0-.17.91h0A2,2,0,0,0,70.6,122a1,1,0,0,0,.82.43h0a.8.8,0,0,0,.66-.37m1.83-1.66h0a3.33,3.33,0,0,1-.77,2.21,2.55,2.55,0,0,1-1.88.87h0a2.21,2.21,0,0,1-1.77-.8,2.69,2.69,0,0,1-.55-1.68h0a2.63,2.63,0,0,1,1.11-2.13,2.34,2.34,0,0,1-.61-.72,2.61,2.61,0,0,1-.31-1.28h0a2.8,2.8,0,0,1,.64-1.87,2.32,2.32,0,0,1,1.8-.74h0a2.06,2.06,0,0,1,1.41.51,2.13,2.13,0,0,1,.62,1.6h0a2.34,2.34,0,0,1-.86,1.76,2.17,2.17,0,0,1,.69.64,2.8,2.8,0,0,1,.48,1.64Zm4-6h0c-1,0-2.08,0-3.14-.08h-.08l-.16.16-.06.05v.09c0,.58,0,1.21,0,1.86,0,.39,0,.78,0,1.17v.18h.77l.11-1a1.82,1.82,0,0,1,0-.31l0-.11s0,0,.1-.06a.9.9,0,0,1,.28,0H78L74.8,123l.1.22.06.12h.13c.21,0,.39,0,.54,0s.39,0,.6,0h.16l0-.15c.16-.65.66-2.15.91-2.79l1.17-2.94a22.07,22.07,0,0,1,1-2.23l0,0v-.83h-.2l-1.45,0m-10.54,7.91c-.07-.05-.11-.13-.12-.32v-4.22c0-1.57.08-2.69.12-3.32v-.08l-.28-.29-.12.06a27.33,27.33,0,0,1-3.15,1.31l-.13,0v.23a2.8,2.8,0,0,0,.16.89l.07.22.2-.12,1.37-.77V122a.39.39,0,0,1-.11.32.64.64,0,0,1-.33.11l-.93,0v.85h.19c1.22,0,1.69,0,2.13,0h0c.46,0,.91,0,1.88,0h.19v-.85l-.83,0a.5.5,0,0,1-.32-.11M49.11,30.47a.19.19,0,0,1,0-.27l1.09-1.14a3.56,3.56,0,0,1,0-1.38.2.2,0,1,1,.36.16,2.33,2.33,0,0,0,0,.86l1.56-1.6,0,0a10.68,10.68,0,0,0,1.43-2.95.19.19,0,0,1,.19-.19.18.18,0,0,1,.21.18,6,6,0,0,1-.83,2,29.4,29.4,0,0,1,4.62-2.81.19.19,0,0,1,.26.09.18.18,0,0,1-.09.25,28.45,28.45,0,0,0-4.75,2.94l-.13.12a9.83,9.83,0,0,1,2.63-.53.18.18,0,0,1,.17.21.19.19,0,0,1-.21.17,13.21,13.21,0,0,0-3.2.75l-1.49,1.52a2.61,2.61,0,0,0,.77-.19.22.22,0,0,1,.28,0A.2.2,0,0,1,52,29a5,5,0,0,1-1.44.34c-.63.64-1.11,1.15-1.12,1.16a.2.2,0,0,1-.14.06.19.19,0,0,1-.14-.05M56.73,118a10.92,10.92,0,0,0,2.4-.61.17.17,0,0,1,.25,0,.2.2,0,0,1,0,.28,4.86,4.86,0,0,1-1.81.6.27.27,0,0,1,0,.2,5.08,5.08,0,0,1-2.28,2h0a.19.19,0,0,1-.19-.15.21.21,0,0,1,.15-.23,5.24,5.24,0,0,0,1.9-1.53,2.23,2.23,0,0,1-.45-.09,18.78,18.78,0,0,1-3.08.29l-.53,0-.05,0a15.62,15.62,0,0,1-3,.78l-.14,0a.2.2,0,0,1-.13-.24.2.2,0,0,1,.25-.13,10.23,10.23,0,0,0,2.11-.51,18.81,18.81,0,0,1-3.77-1.27h-.08l-.91,0c-1.53,0-1.63-.18-1.68-.26a.2.2,0,0,1,.32-.22,7.76,7.76,0,0,0,1.53.09c-1.19-.55-2.07-1-2.15-1.07a.19.19,0,0,1-.07-.26.2.2,0,0,1,.27-.08s1,.52,2.22,1.1a4.9,4.9,0,0,0-.67-1.07.19.19,0,0,1-.07-.26.2.2,0,0,1,.27-.08,6.76,6.76,0,0,1,1,1.67,19,19,0,0,0,3.89,1.32h0a16.49,16.49,0,0,0-2.47-1.9.19.19,0,0,1-.18-.2.19.19,0,0,1,.21-.18A15.8,15.8,0,0,1,53,118.31a15,15,0,0,0,3-.16l-.91-.42a6.61,6.61,0,0,0-1.09-.45.19.19,0,0,1-.19-.2.19.19,0,0,1,.19-.19,4.27,4.27,0,0,1,1.25.5c.45.21,1,.49,1.49.64m-8.34-9.36a.42.42,0,0,1-.18.11s0,.06,0,.06v0h0l-.13,0a4.58,4.58,0,0,1-1.92-1c-.25-.16-.46-.31-.58-.37a.18.18,0,0,1-.09-.25.2.2,0,0,1,.27-.09,7.27,7.27,0,0,1,.62.39c.5.34,1.43,1,1.75.9l.06-.14c-.29-.47-.58-.91-.79-1.25a15.74,15.74,0,0,1-.9-1.46,7,7,0,0,0-.49-.8,2.33,2.33,0,0,1-.4,0,6,6,0,0,1-2.13-.42.2.2,0,1,1,.2-.34,5.59,5.59,0,0,0,2.08.37C44.68,103,43,101,43,101a.18.18,0,0,1,0-.27.19.19,0,0,1,.27,0c.09.1,1.69,2,2.73,3.43a7.35,7.35,0,0,0-.29-2.15.2.2,0,0,1,.14-.23.19.19,0,0,1,.24.14c.17.65.49,2.12.17,2.61a9.06,9.06,0,0,1,.5.84c.12.24.38.66.69,1.14h0c.06,0,0,0,0,0l.16.26c.21.31.41.62.59.91a11.2,11.2,0,0,0-.05-2.25.2.2,0,1,1,.39,0,10.51,10.51,0,0,1,0,2.82c.83,1.35,1.28,2.33.92,2.75a.23.23,0,0,1-.15.07l-.13,0a.19.19,0,0,1,0-.27c.2-.23-.27-1.16-.82-2.09m5.85-81.08-.08-.07h0a14.12,14.12,0,0,0,4-1.25l0,.05a33.06,33.06,0,0,1-9.08,5.26,10.55,10.55,0,0,1,.9-.88l.19-.17a12.05,12.05,0,0,1,1.66-.67c2-.74,2.78-1.06,2.88-1.37s-.2-.68-.44-.9M43.36,110.35l-.59-.06c-.25,0-.65-.83-.93-1.41-.2-.4-.38-.77-.56-1.06A26,26,0,0,0,44,109.66c.46.29,1,.61,1.22.8h-.26c-.43,0-1.06-.07-1.56-.12M64.75,28.4h-.13l-.12.39,0,.05c.16.46.28,1.19,0,1.33a.34.34,0,0,1-.17,0A4.83,4.83,0,0,1,63,29.79a2.12,2.12,0,0,0-.68-.23l-.48,0c-.5,0-1.25-.09-1.79-.09s-.75.06-.82.18-.05.35,0,.62a1.15,1.15,0,0,1,0,.53h-.08a4.09,4.09,0,0,1-1.55-.43l-.4-.16a5,5,0,0,0-2.22.14l-.12,0c-1,.16-6.89,2.52-7.13,3.77a.64.64,0,0,0,.09.56.44.44,0,0,0,.25.14s0,0,0,.07a.2.2,0,0,0,.2.18h0l2.23-.19a20.12,20.12,0,0,0,2.17.93h0a.18.18,0,0,0,.19-.14.19.19,0,0,0-.13-.24,14.79,14.79,0,0,1-1.52-.62l2.16-.21a10.26,10.26,0,0,0,2.11.59h.07a.19.19,0,1,0-.07-.38,5.49,5.49,0,0,1-1.22-.31,15.68,15.68,0,0,0,4.89-1.88.19.19,0,0,0,.06-.27.2.2,0,0,0-.27-.06,15,15,0,0,1-4.77,1.83,5.81,5.81,0,0,0,1.33-.93.19.19,0,0,0,0-.27.21.21,0,0,0-.28,0,9.61,9.61,0,0,1-2,1.25l-.07,0-2,.18a3.87,3.87,0,0,0,.79-.77.2.2,0,0,0-.08-.27.19.19,0,0,0-.26.07,5.81,5.81,0,0,1-1.19,1l-1.31.11.27-.11a5.62,5.62,0,0,1,.56-.2c.42-.13.77-.66,1.11-1.17.18-.26.47-.69.58-.7a.51.51,0,0,1,.15.46.49.49,0,0,0,.28.55,1.64,1.64,0,0,0,1.32-.1,1.67,1.67,0,0,0,.34-.39c.31-.39,1-1.3,1.42-1.3h0c.14,0,.17.12.22.46s.09.71.5.81.85-.3,1.35-.72c.34-.3.77-.66,1-.66h0l.41.08c2,.41,2.42.66,2.45.8a6.7,6.7,0,0,1-3.07,2.22h0a1.44,1.44,0,0,1-.57-.24.74.74,0,0,0-.35-.14c-.1,0-.24,0-.33.28a.8.8,0,0,0,.1.61c.13.28.16.38-.08.54a.45.45,0,0,1-.22,0,4.45,4.45,0,0,1-1.31-.39,2.54,2.54,0,0,0-.77-.25.29.29,0,0,0-.23.09.3.3,0,0,0,0,.25l0,.09c.1.41.3,1.26-.09,1.39a4.5,4.5,0,0,1-1.38-.74c-.72-.47-1.07-.69-1.3-.57a.85.85,0,0,0-.34.46c-.1.24-.15.32-.31.32h0c-.08,0-.16-.08-.3-.19-.42-.36-1.12-1-3.58-1h-.25c-1.52,0-4,2-7.43,6l-.2.24-.1.11,0,.12a1.08,1.08,0,0,0,.74.57h0l.05,0a3.32,3.32,0,0,0,1.33-.84c.08-.09.18-.21.3-.37.39-.49,1.4-1.78,1.73-1.79.14.07.14.18.13.41s0,.46.26.54l.11,0c.39,0,1-.63,1.83-1.66A6.91,6.91,0,0,1,47,37.17c.31,0,.53.36.73.65s.34.54.61.53a.4.4,0,0,0,.25-.09,5.77,5.77,0,0,1,2.18-.9c.1,0,.15,0,.16,0s-.48.65-.72.89c-.49.48-.88.86-.66,1.16.06.08.14.16.21.24S50,40,50,40l-.08.1a3.69,3.69,0,0,1-1,.23c-.74.11-1.44.2-1.62.57a.88.88,0,0,0,0,.72c0,.18.08.26,0,.39s0,0-.11,0a5.11,5.11,0,0,1-1.31-.4A3.3,3.3,0,0,0,45,41.4l-.22,0c-.34-.06-.68-.07-.82.12a.59.59,0,0,0,0,.56,2.75,2.75,0,0,0,.56.84c.17.19.39.45.37.56s0,.07-.12.1a1.07,1.07,0,0,1-.49.09,8.22,8.22,0,0,1-1.69-.27,6.16,6.16,0,0,0-1-.19c-.13,0-.35,0-.61-.05-.49,0-1.17-.1-1.74-.1s-1,.08-1.19.28A37,37,0,0,0,33.52,49C32.3,51,27.45,60.88,28.11,64c.08.35.23.53.45.53.5,0,1.1-1.24,1.52-2.28A7.41,7.41,0,0,0,30.36,60a6,6,0,0,1,.09-1.13,1.86,1.86,0,0,1,.8.14,2.37,2.37,0,0,0,.62.13.74.74,0,0,0,.62-.33c.24-.35.17-1.21,0-2.59a7.4,7.4,0,0,1-.07-2c.23-.14.63.14,1,.38a1.51,1.51,0,0,0,.72.36c.1,0,.32,0,.39-.37a4.48,4.48,0,0,0,0-1.12c0-.47,0-1.12.11-1.27s.07,0,.16,0a.78.78,0,0,0,1.08-.38,12,12,0,0,1-1.71,5.61c-.18.26-.36.54-.54.82a11.33,11.33,0,0,1-.23-2.76.19.19,0,0,0-.11-.25.19.19,0,0,0-.25.11,12.94,12.94,0,0,0,.27,3.36v0c-.26.4-.51.81-.76,1.22-.42.68-.84,1.37-1.26,2a10.41,10.41,0,0,1,.39-2.28.2.2,0,1,0-.34-.2,14.16,14.16,0,0,0-.49,3v.18a6.62,6.62,0,0,1-1.78,1.9.19.19,0,0,0-.1.17c-.65.52-1,.94-1.09,1.26-.12.66-.12,4.3-.05,7.3.14,6.48.44,6.71.55,6.8l0,0a.18.18,0,0,0,.09.16l.1,0a.22.22,0,0,0,.17-.09c0-.07,1-1.53,1.66-2.86.54-.2,2.52-1,2.89-1.65a.2.2,0,0,0-.08-.26.21.21,0,0,0-.27.07,6.31,6.31,0,0,1-2.3,1.33.59.59,0,0,1,0-.08,5.4,5.4,0,0,0,.41-1.81A3.72,3.72,0,0,1,31.69,73l0,0a6.89,6.89,0,0,0,1.94-2.53.19.19,0,0,0-.2-.19.19.19,0,0,0-.19.19A6.35,6.35,0,0,1,32,72.11a11.4,11.4,0,0,0,.12-3.62.19.19,0,0,0-.22-.16.19.19,0,0,0-.17.21s.35,2.78-.34,4.1a17.88,17.88,0,0,1-.89-2.54A.19.19,0,0,0,30.3,70a.2.2,0,0,0-.13.24A9.05,9.05,0,0,0,31.23,73a4.43,4.43,0,0,0-.47,1.82,4.74,4.74,0,0,1-.37,1.68l-.09.21a6.65,6.65,0,0,1-.79-2.13.19.19,0,0,0-.15-.23.21.21,0,0,0-.24.14,7.74,7.74,0,0,0,1,2.66c-.32.64-.71,1.32-1,1.84a18.45,18.45,0,0,0,0-2.11v0c-.4-1.17-.79-3-.42-3.28l.11.1a1,1,0,0,0,1,.35c.59-.11.52-1.16.35-2.88a9,9,0,0,1-.1-1.58.45.45,0,0,1,.19-.08l.12,0a1.94,1.94,0,0,0,.56.07c.27,0,.33-.29.38-.57.1-.5.22-.93.75-1l.17,0v-.17a4,4,0,0,1,.1-1.25,3.21,3.21,0,0,1,.48.88,8,8,0,0,1,.61,1.67c0,.12,0,.16.31.67.42.72-.22,1.93-.46,2.38a1,1,0,0,0-.11.23l-.06.14c-.28.62-.5,1.25-.28,1.65a.63.63,0,0,0,.48.29c.17,0,.28.15.34.37a2.39,2.39,0,0,1-.88,2.24c-2,1.48-3.27,2.55-3.79,3.8-.26.64.63,6.31,1.48,7a.57.57,0,0,0,.37.16c.13,0,.35-.06.45-.44a2.48,2.48,0,0,0,0-.41.4.4,0,0,0,.11.18l.07.06,1-.24,0-.13a3.62,3.62,0,0,1,.45-1.31l.14.36.81.6.19.42.39.42s0,0,0,0a1.76,1.76,0,0,1-.8.12,2.6,2.6,0,0,1-.87-.11,1.46,1.46,0,0,0-.61-.14,1.4,1.4,0,0,0-.82.28c-.75.57.22,5.4.73,6.13.34.51.79,1.19,1.3,2,2.22,3.43,4,6.07,4.86,6.2.3.05.39-.08.43-.15a.3.3,0,0,0,0-.23s0,0,0,0a6.12,6.12,0,0,0,.12-1.37A7,7,0,0,0,40,97.7a.19.19,0,1,0-.38,0,5.39,5.39,0,0,1-.85,1.88,14.36,14.36,0,0,0-.4-2.67,9.87,9.87,0,0,0,.74-3,.19.19,0,0,0-.24-.12.2.2,0,0,0-.13.24,8.67,8.67,0,0,1-.56,2.22,6,6,0,0,0-.28-.72,15.08,15.08,0,0,1-.79-2.33l0-.12a10.85,10.85,0,0,0,.45-2.68.18.18,0,0,0-.24-.11.2.2,0,0,0-.13.23,9.53,9.53,0,0,1-.32,1.89c-.52-2-1-4.17-1-4.2a.21.21,0,0,0-.23-.16.2.2,0,0,0-.16.23c0,.14.44,2.18.95,4.17A5,5,0,0,1,35.17,91a.2.2,0,0,0-.25-.11.2.2,0,0,0-.11.25A6.47,6.47,0,0,0,36.63,93a16.56,16.56,0,0,0,.87,2.64,7.13,7.13,0,0,1,.28.67,9.47,9.47,0,0,1-1.48-1.6.2.2,0,0,0-.39,0c0,.38,1.3,1.59,2.07,2.29h0a15,15,0,0,1,.38,2.76,5.94,5.94,0,0,1-.89-1.23.21.21,0,0,0-.22-.17.2.2,0,0,0-.17.21,6.73,6.73,0,0,0,1.25,1.75l0,0a6.77,6.77,0,0,1,0,.69l-.55-.66c-.61-.71-1.53-1.78-1.43-2.23a1.71,1.71,0,0,1,.4-.07c.28,0,.5-.05.59-.21a.25.25,0,0,0,0-.24,2.79,2.79,0,0,0-.35-.43c-2-2.29-2.18-2.89-2.15-3a.79.79,0,0,1,.27,0h.44c.14,0,.42,0,.49-.23s-.1-.41-.7-1.25c-.38-.53-1.17-1.65-1.08-1.87a2,2,0,0,1,.76-.29l.2,0c.29-.09.28-.53.24-1.6a5.42,5.42,0,0,1,.08-1.68c.39,0,.68,1,.85,1.67s.24.86.4,1a.61.61,0,0,0,.64-.1l.1-.09,0,0a8.63,8.63,0,0,1,.18,1.42c.11,1.39.18,2,.41,2.18a.44.44,0,0,0,.21.07c.22,0,.33-.21.44-.41s.17-.32.26-.32c.24,0,.54,1,.57,1.48a6.82,6.82,0,0,1-.31,1c-.47,1.3-.59,1.74-.39,1.93s.42.08.66,0a1.12,1.12,0,0,1,.44-.16.49.49,0,0,1,.15,0,7.62,7.62,0,0,1-.32,2.2,13.56,13.56,0,0,0-.52,4.23c.11.69,6.7,6.69,9,7.25.42.09.59-.07.64-.17.15-.3-.17-.81-.47-1.18-.09-.11-.31-.2-.94-.44-.93-.35-2.85-1.08-2.8-1.7,0-.33.12-.33.17-.33a1.14,1.14,0,0,1,.24,0,.79.79,0,0,0,.24,0,.28.28,0,0,0,.22-.09.35.35,0,0,0,0-.34c-.07-.29-.51-.61-1.28-1.14s-1.66-1.15-1.7-1.56l.05,0a1,1,0,0,0,.94.06c.31-.22,0-.78-.65-2a6.9,6.9,0,0,1-.88-1.92l.08,0a6.3,6.3,0,0,1,2.67,1.7c.07.12.13.23.27.23h.08l.06-.06a.32.32,0,0,0,.06-.25c0-.07,0-.24,0-.28s.1,0,.17,0c.61.16,1.91,3.18,2,3.52l0,.2h.17c.14,0,.19-.11.23-.21.14-.29.3-.55.61-.43.53.22,1,3.08.88,3.46a22.34,22.34,0,0,0,.66,4c.24.54,4.3,2.43,4.34,2.45,1.27.59,4.37,2,5.6,2a1,1,0,0,0,.43-.08.48.48,0,0,0,.23-.47,2.76,2.76,0,0,0-1.24-1.86.78.78,0,0,0-.37,0l-.52,0-.84,0a2.6,2.6,0,0,1-1.6-.31.29.29,0,0,1-.09-.21c0-.28.25-.45.46-.59s.33-.24.35-.41a.33.33,0,0,0-.12-.28c-.22-.22-.7-.07-1.17.13a2.4,2.4,0,0,1-.64.2,19.66,19.66,0,0,1-3-3.37c.23-.21,1.09,0,1.79.18a4.72,4.72,0,0,0,1,.21c.55,0,.59-.43.61-.62v-.08a4,4,0,0,1,2,1.49.63.63,0,0,0,.48.17,3.36,3.36,0,0,0,.6-.07,2.58,2.58,0,0,1,.85,0c.65.2,1.69.8,1.47,1.82a3.55,3.55,0,0,0,.35,1.33,5.2,5.2,0,0,1,.41,1.41,2.71,2.71,0,0,1-.15.64A5.27,5.27,0,0,0,60,112.68a4.92,4.92,0,0,0-.53-2.08.2.2,0,0,0-.28,0,.19.19,0,0,0,0,.27,5.06,5.06,0,0,1,.35,1.53c-.51-.21-1.53-.71-2.6-1.27l0,0a7.9,7.9,0,0,0-.92-2,.2.2,0,0,0-.27,0,.19.19,0,0,0,0,.27,7.28,7.28,0,0,1,.67,1.54c-1.63-.84-3.24-1.7-3.27-1.72a.19.19,0,0,0-.19.34c.11,0,1.42.76,2.87,1.51a7.91,7.91,0,0,1-1.2,0,.2.2,0,0,0-.2,0,.19.19,0,0,0-.09.26c0,.08.08.16.74.16.31,0,.77,0,1.42-.06.93.48,1.84.93,2.45,1.22a2.84,2.84,0,0,1-1.48-.15.2.2,0,0,0-.24.31,2.25,2.25,0,0,0,1.22.24,10.22,10.22,0,0,0,1.18-.08c1,.68,1.51,2.83,1.51,2.86a.18.18,0,0,0,.12.12.62.62,0,0,0,0,.41.43.43,0,0,0,.25.19l1.57,1-.31.92a5.61,5.61,0,0,0-2.48-1,1.19,1.19,0,0,0-.44.08,7.47,7.47,0,0,0-2.31,2.06,5.43,5.43,0,0,1-2.12,1.81,3.73,3.73,0,0,1-.86.13c-.42,0-.52-.16-.56-.43a.77.77,0,0,1,.16-.52c.11-.2.29-.49-.06-.76a.4.4,0,0,0-.27-.09A2.19,2.19,0,0,0,53,120a3,3,0,0,1-1.9.49,2.48,2.48,0,0,1-2-1.94c0-.13-.06-.46-.36-.46a1,1,0,0,0-.31.08,1.35,1.35,0,0,1-.6.15,1.9,1.9,0,0,1-1-.34,6.12,6.12,0,0,1-2.52-2.44,9.16,9.16,0,0,1,2.79-.85l.17,0,.26,0c.47,0,.65.34.83.75.09.21.17.39.36.39h0a.35.35,0,0,0,.27-.16,1.93,1.93,0,0,0,.26-.68c.06-.31.09-.36.23-.37s.67.56,1,.92c.76.81,1.29,1.32,1.69,1.2l.42-.13a5.13,5.13,0,0,1,1.62-.31,1.35,1.35,0,0,1,.94.62,1.36,1.36,0,0,0,.75.57,6.32,6.32,0,0,0,1.32-.09,9.05,9.05,0,0,1,1.14-.12.67.67,0,0,1,.25,0l.09,0,.19-.06v-.14c0-.11-.07-.16-.15-.19h0c-1.19-.48-5.15-2.07-6.48-2.68-.53-.25-1.17-.6-1.86-1a12.83,12.83,0,0,0-3.71-1.64l-.47,0a17,17,0,0,1-3.07-.38,1.28,1.28,0,0,0-.33-.06,1,1,0,0,0-.8.57c-.16.22-.25.34-.39.3a1.43,1.43,0,0,1-.44-.22,1,1,0,0,0-.68-.19c-.29,0-.39.08-.46.22s-.06.1-.61.12h-.07a1.85,1.85,0,0,1-1.51-.58,2.91,2.91,0,0,1,.24-.31c.21-.25.43-.5.34-.76a.57.57,0,0,0-.43-.33c-.27-.07-.63-.14-1-.22a8.58,8.58,0,0,1-1.8-.47c-.47-.27-1.07-.82-1.1-1.09v0l.2,0c.28.06.61.09.75-.07a.36.36,0,0,0,.07-.32c-.08-.46-1-1-2.69-1.74l-.22-.11a2.36,2.36,0,0,1-1.24-1.3.2.2,0,0,1,0-.18c.05-.07.13,0,.24,0a1,1,0,0,0,.31.06.56.56,0,0,0,.52-.41,2.07,2.07,0,0,0-.24-1.37c-.13-.32-.31-.77-.19-.87l.08,0a2,2,0,0,1,.73.37c.32.23.61.41.83.35a1,1,0,0,0,.69-.7c.09-.25.12-.22.24-.2s.5.8.7,1.32a4.45,4.45,0,0,0,1.16,2c.72.49.8,0,.82-.26s.05-.3.18-.3.64,1,.86,1.52c.45,1.08.76,1.75,1.21,1.75h.08l.38-.08a1.47,1.47,0,0,1,1,0c.26.07.64.84.92,1.41a6,6,0,0,0,.78,1.35c-.19,0-.38-.12-.58-.19-.18-.44-.83-1.92-1.56-2.16a.19.19,0,1,0-.13.36c.39.13.86.92,1.18,1.59-.86-.36-1.71-.81-2.45-1.21l-.34-.18a14.74,14.74,0,0,0-1.12-3.2.21.21,0,0,0-.28,0,.17.17,0,0,0,0,.26,17.34,17.34,0,0,1,.89,2.67,6.94,6.94,0,0,0-.82-.38A8.29,8.29,0,0,1,35,106v0c0-.11-.33-2.57-.52-3.15a.19.19,0,1,0-.37.12,22.3,22.3,0,0,1,.42,2.51c-.74-.9-1.44-1.81-1.83-2.35a.18.18,0,0,0-.27,0,.19.19,0,0,0,0,.27c.07.09.86,1.16,1.8,2.3a12.62,12.62,0,0,1-2.28-.77.2.2,0,0,0-.27.06.2.2,0,0,0,.06.27,17.43,17.43,0,0,0,2.92,1A8.86,8.86,0,0,0,37,108.34a3.57,3.57,0,0,1,.51.23,6,6,0,0,1-1.84-.19.19.19,0,1,0-.25.29,6.08,6.08,0,0,0,2.34.29h.5l.32.17c.76.41,1.61.86,2.48,1.23a8,8,0,0,1-2.27.48.2.2,0,0,0-.23.16.19.19,0,0,0,.16.22l.18,0a11.88,11.88,0,0,0,2.72-.66,7.93,7.93,0,0,0,1.88.46h0a.2.2,0,0,0,.2-.18.19.19,0,0,0,0-.08c.43,0,.9.09,1.26.09s.66,0,.74-.25-.19-.46-1.49-1.27a16.79,16.79,0,0,1-3.26-2.4c-1.56-1.78-6.6-6.59-8.24-8.14a.56.56,0,0,0-.14-.09.16.16,0,0,0,.06-.13s0,0,0,0a1.31,1.31,0,0,0,.52,0l.12,0,0-.09c.1-.24-.15-.84-1.83-3.69l-.31-.53A50.71,50.71,0,0,1,28,86.81c0-.07-.08-.34-.16-.72-.22-1-.58-2.58-.78-3.26-.26-.84-.83-1.16-1.62-1.59l-.53-.31a9.78,9.78,0,0,0-1.26-.53c-1.31-.49-2.95-1.1-3.06-2.25a4.15,4.15,0,0,1,0-.47A2,2,0,0,1,21,78c.25.22.39.34.55.34a.26.26,0,0,0,.26-.24,4.7,4.7,0,0,0-1.06-3c-.53-.48-1.29-1.49-1.23-1.94a.13.13,0,0,1,.08-.13c.19-.1.3,0,.47.12a.53.53,0,0,0,.37.2.38.38,0,0,0,.31-.17c.19-.24.06-.64-.14-1.26a5.73,5.73,0,0,1-.37-2.93c.08-.41.16-.41.29-.41h.12c.45,0,.83-.21,1.2-1.24.26-.74.44-.75.44-.75s.26.21.57,1.16L23,68c.07.22.2.34.38.34a.75.75,0,0,0,.29-.09.7.7,0,0,1,.26-.08s.14,0,.28.16-.12.85-.37,1.37-.56,1.2-.39,1.58a.58.58,0,0,0,.35.3,1.26,1.26,0,0,0,1-.06l.09,0s.07,0,.24.22c.47.59-.38,2-.76,2.34a1.71,1.71,0,0,0-.37,1.2,1.58,1.58,0,0,0,.34,1.13,1,1,0,0,0,.85.06,1.34,1.34,0,0,1,.36-.07c.11,0,.14,0,.16.06s0,.46-.1.83A6.24,6.24,0,0,0,25.24,79a2.45,2.45,0,0,0,1,2,2.35,2.35,0,0,1-1.15-.67h0a7.34,7.34,0,0,1,.05-3,.21.21,0,0,0-.1-.26.21.21,0,0,0-.26.09,6.16,6.16,0,0,0-.15,2.59,14,14,0,0,1-1.75-3.86.3.3,0,0,1,0-.1c.32-.49,1.43-2.28,1.38-3.06a.2.2,0,0,0-.39,0,7.31,7.31,0,0,1-1.14,2.55,37.34,37.34,0,0,1-.41-3.78c.53-.73,1.57-2.21,1.48-2.65a.18.18,0,0,0-.23-.15.19.19,0,0,0-.15.22,7.73,7.73,0,0,1-1.14,2,10,10,0,0,1,.07-2.84.19.19,0,0,0-.08-.26.19.19,0,0,0-.26.07,9.58,9.58,0,0,0-.12,3,5.49,5.49,0,0,1-.9-1.63.18.18,0,0,0-.2-.18.19.19,0,0,0-.19.2,7.92,7.92,0,0,0,1.33,2.32h0a35.1,35.1,0,0,0,.41,3.74,5.55,5.55,0,0,1-1.6-1.33.2.2,0,0,0-.38.1c.15.54,1.77,1.56,2.15,1.8a.14.14,0,0,1,0,.06,14.84,14.84,0,0,0,1.75,3.86,8.3,8.3,0,0,1-2.32-1.1.2.2,0,0,0-.24-.13.2.2,0,0,0-.13.25c.15.47,2.18,1.22,3.16,1.56a2.81,2.81,0,0,0,1.52.9h0a.18.18,0,0,0,.19-.16.08.08,0,0,0,0-.07l.15.08.31.17,0-.35c0-.08-.59-8.67-.56-9.81s-.13-6.72-.14-7v0a7.5,7.5,0,0,0-.31-.78s-.22-.89-.41-2A10.88,10.88,0,0,0,27,58.72a.18.18,0,0,0-.17-.21.19.19,0,0,0-.21.18,9.75,9.75,0,0,1-1.21,2.14,13.41,13.41,0,0,1-.13-3.08,15.67,15.67,0,0,0,2.26-2.29.19.19,0,0,0-.36-.14,13,13,0,0,1-1.81,1.83c.09-.51.19-1.16.28-1.87a10,10,0,0,1,1.81-2.35.19.19,0,1,0-.19-.34,6.54,6.54,0,0,0-1.5,1.78c.25-2,.48-4.26.54-4.93a.47.47,0,0,1,.09.12,5.24,5.24,0,0,1,.34,1c.33,1.14.57,1.84,1,1.84a.45.45,0,0,0,.32-.15l0,0a3,3,0,0,1-.26,1.42c-.09.14-.37.63-.19.94a.42.42,0,0,0,.41.22,1.88,1.88,0,0,0,.71-.2l.05,0A12.73,12.73,0,0,1,27.2,57c-.37.42-.5.7-.41.92s.39.29.63.32l.14,0c0,.39-.3,1.89-1.06,2.24S25.9,62,26,62.69c.06.3.29,1.31.63,1.32s.25,0,1.25-3.52c.46-1.62,1-3.45,1.35-4.47.47-1.32.93-2.81,1.24-3.8.15-.5.26-.87.32-1s-.13-.79-.65-2a14.59,14.59,0,0,1-1.41-4.28c0-.77,0-1.22.19-1.38a.31.31,0,0,1,.25-.09,3.09,3.09,0,0,1,.9.23.45.45,0,0,0,.53-.1c.22-.27.09-.83-.13-1.72-.16-.62-.38-1.48-.21-1.7a.11.11,0,0,1,.09,0c.72,0,.93-.71,1.1-1.27s.24-.73.44-.73a1.56,1.56,0,0,0,1.63-1.25,2.21,2.21,0,0,1,.1-.24c.47-.73.92-.79,1.05-.79a.25.25,0,0,1,.18.05c.17.12.12.7.09,1.17-.06.73-.12,1.49.37,1.74-.09.2-.16.41-.23.61s-.42.51-.65.77c-.67.75-1,1.13-.9,1.41a.29.29,0,0,0,.24.19,1.78,1.78,0,0,0,.81,0,1.2,1.2,0,0,1,.24,0s.1,0,.17.1-.9.81-1.44,1.17c-1,.67-1.62,1.1-1.66,1.49s.27.6.59.88.72.67.55,1a2.8,2.8,0,0,1-.58.65,3.09,3.09,0,0,0-1.2,3.06c.05.36.13.71.4.71h0c.27,0,.44-.37.88-1.37A21.46,21.46,0,0,1,36.4,43.2l.06-.06v-.08c0-.11,0-.24,0-.38l0,0,.13.1.56-.49.08-.1C40.22,39,40.09,38,40,37.41a1.05,1.05,0,0,1,0-.18.11.11,0,0,1,0,0,.2.2,0,0,0,.13-.11c.15-.38.39-1,.67-1.59.39-.25,2-1.33,2.24-1.89a.21.21,0,0,0-.12-.25.2.2,0,0,0-.25.11,5.9,5.9,0,0,1-1.57,1.36,11.32,11.32,0,0,1,2-3.31l.3-.25a6.61,6.61,0,0,0,2.19-.36.19.19,0,0,0,.09-.26.2.2,0,0,0-.26-.08,5.15,5.15,0,0,1-1.62.29l.58-.64A9.91,9.91,0,0,1,48,27.28a4.66,4.66,0,0,1-1.61,2.1c-.45.38-.74.63-.71.92a.47.47,0,0,0,.23.35l0,.07c0,.23-.57.8-2,1.4-.53.22-.76.35-.72.57s.32.25.83.26a3.88,3.88,0,0,1,.71.07c-.18.2-.76.68-1.28,1.11-1.92,1.58-3.37,2.85-3,3.56a.47.47,0,0,0,.45.28c.67,0,2.08-1.2,4.43-3.78l.21-.24a18.69,18.69,0,0,0,3.27-3.39A4.74,4.74,0,0,0,49,29.35c.14-.79.51-2.87.91-2.89.2,0,.22.07.28.24s.2.54.77.38.73-1,1-2c.18-.64.5-1.71.79-1.71h0a4.8,4.8,0,0,0,1.28.2c.71,0,1.17-.2,1.33-.59s1.56-.51,2.87-.51a4,4,0,0,1,.56,0,.28.28,0,0,1,.11.16c0,.15-.19.38-.37.59s-.63.73-.49,1.17a1.9,1.9,0,0,0,.44.72c.18.2.19.2.08.35-.52.64-3.58,1.6-4.46,1.65-.21,0-.42,0-.48.21s.09.35.28.52.39.36.35.49a12.91,12.91,0,0,1-2.65,1.14,8.87,8.87,0,0,0-1.8.75l-.18.17c-.76.68-1.12,1-1.13,1.33a.29.29,0,0,0,.09.21l.09.06h.08A31.26,31.26,0,0,0,58.4,26.6a2.77,2.77,0,0,1,.52-.42.65.65,0,0,1,0,.18c.05.21.13.59.55.59a3,3,0,0,0,1.53-.85,4.18,4.18,0,0,1,1.69-1c.1,0,.13.05.23.19a.6.6,0,0,0,.53.37,1.15,1.15,0,0,0,.34-.07,2.24,2.24,0,0,0,1-.74c.24-.28.34-.36.69-.27a22.66,22.66,0,0,1,3.52,1.87,7.08,7.08,0,0,1-4.3,2M36.8,50.82c.09,0,.13,0,.13-.06a2,2,0,0,1-.06.64c-.12.61-.3,1.55.49,1.78.08,0,.18.06.19.12.07.22-.42.77-.74,1.13s-.67.75-.66,1,.26.41.6.35l.17,0s.08,0,.1.13c0,.5-.87,1.53-1.54,2.29s-1,1.14-.95,1.4a.26.26,0,0,0,.15.2,2.08,2.08,0,0,0,.37.13.73.73,0,0,1,.2.07s0,.07,0,.31a17.81,17.81,0,0,1-2.71,1.93c-.63.4-1.21.78-1.73,1.13.27-.35.54-.74.83-1.16a6.22,6.22,0,0,1,2.31-1.58.2.2,0,0,0,.26-.1.19.19,0,0,0-.11-.25c-.35-.14-1.07.3-1.76.83l.62-1,.9-1.43c.71-.43,2.28-1.42,2.45-1.89a.19.19,0,0,0-.12-.24.19.19,0,0,0-.24.12,6.73,6.73,0,0,1-1.59,1.23l.21-.3a12.7,12.7,0,0,0,1.79-6.28.21.21,0,0,0,0-.13,1.36,1.36,0,0,1,.53-.35M28.66,76.93a13.9,13.9,0,0,1-.06,2.54,34.12,34.12,0,0,1-.27-3.66c.13.5.27.93.33,1.12m3.59,9.19a5.59,5.59,0,0,0-.18.7l-.53.13a1.85,1.85,0,0,1,.09-.54c.07-.22.14-.23.34-.25a1.26,1.26,0,0,0,.28,0m-2.09-1,.17,0L31.42,85l.48.13.62,0v0c-.14.59-.34.61-.58.63a.66.66,0,0,0-.68.52,2.33,2.33,0,0,0-.1.43c0-.42-.16-.83-.36-.93-.43-.22-.61-.39-.64-.65m1.37-2.93s.17.09.38.42a4.28,4.28,0,0,1,.65,2.08l-.62,0-.51-.13-1.07.17-.19-.06c.15-1.11,1.06-2.53,1.36-2.53m3.63,2.63c.05,0,.1.13.1.36a4.35,4.35,0,0,1-.6,2l-.3-.32-.22-.48-.79-.6-.14-.34s0,0,0,0a3.73,3.73,0,0,1,1.7-.65.6.6,0,0,1,.26,0M29,90.47a30.88,30.88,0,0,0,1.84,3.93l.3.52a33,33,0,0,1,1.78,3.27,2.06,2.06,0,0,1-.89-.35,4.33,4.33,0,0,0-.81-.39c-.3-.11-.45-1.26-.54-1.94-.13-1-.2-1.53-.58-1.53a2.08,2.08,0,0,0-.48,0,2.11,2.11,0,0,1-.38,0h-.26a5.19,5.19,0,0,1,0-1.66,7.78,7.78,0,0,0,0-1.93m-.81,7.77a8.83,8.83,0,0,0-.91-.66c-.53-.35-1.07-.71-1.06-1,0-.09,0-.1.11-.1l.28,0a2.23,2.23,0,0,0,.34,0,.4.4,0,0,0,.44-.3c.07-.29-.3-.58-1.37-1.35-.69-.5-1.75-1.25-1.75-1.59a.62.62,0,0,1,.32-.19.3.3,0,0,1,.11,0,.57.57,0,0,0,.25.07.56.56,0,0,0,.39-.21c.31-.32-.13-.74-.74-1.31-.84-.77-2-1.84-1.78-3,0-.1,0-.12.17-.12h.36a.63.63,0,0,0,.6-.32A2.1,2.1,0,0,0,23.82,87c-.11-.48-.25-1.09,0-1.29l.06,0c.15,0,.42.38.59.6s.41.57.63.57h.13l.24-.14c.26-.15.57-.31.79-.14a6.31,6.31,0,0,1,.34,2.09c.12,1.49.2,2,.54,2.09a1,1,0,0,0,.68-.2.88.88,0,0,1,.71-.17c.2.1.1,1.37.05,2-.09,1.2-.15,2,.3,2.06a2.49,2.49,0,0,0,.8,0,1.32,1.32,0,0,1,.37,0,5.63,5.63,0,0,1,.23,1.2c.14,1,.28,2.07.8,2.25a4.61,4.61,0,0,1,.74.36l.31.17A6.2,6.2,0,0,1,30,97a8.52,8.52,0,0,0-.22-2.27.2.2,0,0,0-.26-.08.18.18,0,0,0-.09.25,6.79,6.79,0,0,1,.17,1.76c-.51-.46-1-.93-1.36-1.29l-.54-.53A15.8,15.8,0,0,0,28,91.4a.19.19,0,0,0-.19-.19h0a.2.2,0,0,0-.2.19,17.94,17.94,0,0,1-.26,3.13,16.35,16.35,0,0,1-1.49-3.27l0-.09A10.41,10.41,0,0,0,26,88a.19.19,0,0,0-.24-.12.2.2,0,0,0-.12.25,7.66,7.66,0,0,1,0,2.36c-.67-2-1.18-3.78-1.19-3.81a.19.19,0,0,0-.24-.13.18.18,0,0,0-.13.23c0,.15.54,2,1.2,3.87a5,5,0,0,1-1.44-1.2.19.19,0,0,0-.12-.24.21.21,0,0,0-.25.12c-.15.45,1,1.27,2,1.92a17.68,17.68,0,0,0,1.58,3.51,5.12,5.12,0,0,1-.57-.49,4.59,4.59,0,0,0-1-.8.19.19,0,0,0-.26.09.2.2,0,0,0,.09.26,4.2,4.2,0,0,1,.92.73c.41.38.74.69,1.05.69h.09l.08,0,.53.51c.47.46,1,1,1.62,1.52a4.42,4.42,0,0,1-2.44-.47.2.2,0,0,0-.27.06.2.2,0,0,0,.06.27,4.5,4.5,0,0,0,2.31.54c.32,0,.54,0,.57,0l.17,0h0a8,8,0,0,0,1.48,1c-.34,0-.74,0-1.2,0a7,7,0,0,1-2.12-.23M25,62.19l-.05,0c-.62-.44-2.51-1.76-2-2.68.12-.23.3-.2.5-.18h.18a.52.52,0,0,0,.42-.17c.17-.2.2-.56.1-1.22a11.27,11.27,0,0,0-.7-2.37c-.25-.63-.45-1.13-.32-1.38l.14.06a1.17,1.17,0,0,0,.4.11c.53,0,.87-.67,1.12-2.22.44-2.7,1-2.91,1.19-2.91h0c0,.17-.26,2.65-.54,5a5.81,5.81,0,0,1-.19-1.54A.19.19,0,0,0,25,52.4a.19.19,0,0,0-.24.14,11.38,11.38,0,0,0,.43,2.75h0c-.09.69-.18,1.32-.27,1.81a4.37,4.37,0,0,1-.87-2,.19.19,0,0,0-.32-.22c-.34.49.62,2.09,1.1,2.82A13.8,13.8,0,0,0,25,61a5.17,5.17,0,0,1-1.12-1.35.2.2,0,0,0-.2-.2h0a.19.19,0,0,0-.19.2c0,.43,1.1,1.51,1.58,2l0,0c.06.31.11.6.16.86a1.69,1.69,0,0,0-.28-.26M35.83,38.74c.36-.73.74-1.12.88-1.12a1.06,1.06,0,0,1,.38.42,4.31,4.31,0,0,1,.65,2l-.54,0L36.7,40l-1.07.16L35.37,40c0-.13.06-.27.11-.42.22-.31.43-.63.35-.88m-3,6.35c-.22-.2-.48-.42-.46-.56s.9-.82,1.49-1.21c1.08-.72,1.86-1.24,1.55-1.69a.58.58,0,0,0-.5-.28,1.26,1.26,0,0,0-.33,0,1.47,1.47,0,0,1-.56.05,7.33,7.33,0,0,1,.79-1l.19-.21c0,.06,0,.11,0,.17,0,.57.33.86.86,1.13A3.82,3.82,0,0,1,36.06,43a21.77,21.77,0,0,0-3.84,6.28c-.18.41-.37.83-.49,1a2.77,2.77,0,0,1-.05-.29,2.72,2.72,0,0,1,1.08-2.72,2.86,2.86,0,0,0,.65-.76c.32-.62-.23-1.11-.63-1.46m4.57-3.55L37,42l-.22.22a2.14,2.14,0,0,1,.08-.4c.07-.22.14-.22.35-.24l.19,0m-.23-.35a.64.64,0,0,0-.68.51,2.18,2.18,0,0,0-.08.36,1.3,1.3,0,0,0-.37-.85c-.49-.26-.66-.44-.66-.78l.27.09,1.08-.17.49.13.55,0s0,.09,0,.12c-.14.6-.33.61-.58.64m3-10a1.53,1.53,0,0,1,.91.28,1.59,1.59,0,0,0,.74.27.79.79,0,0,0,.63-.34,3.7,3.7,0,0,0,.48-1.61c.15-.95.3-1.93.95-2.05h.06s.07,0,.1.21.08.43.37.43.5-.16,1.33-.94a2.57,2.57,0,0,1,1.63-.45l.4,0a10.42,10.42,0,0,0-3.62,3l-.61.67a8.1,8.1,0,0,1,.64-1.4.19.19,0,0,0-.05-.27.2.2,0,0,0-.27.06A10.25,10.25,0,0,0,43,31l-.05.17,0,0a10.34,10.34,0,0,0-2,3.28A8.53,8.53,0,0,1,41,32.4a.19.19,0,0,0-.1-.25.2.2,0,0,0-.26.1,12.24,12.24,0,0,0-.11,3L40,36.42c0-.16,0-.34,0-.55-.21-3.1-.16-4.68.16-4.72m29.2-5a23.58,23.58,0,0,0-3.69-1.95,1,1,0,0,0-1.09.39,1.84,1.84,0,0,1-.84.63c-.21.08-.26.1-.4-.14a.64.64,0,0,0-.56-.37c-.26,0-.72.12-1.93,1.1-.83.67-1.17.77-1.29.77s-.11,0-.17-.29-.15-.55-.5-.46l.08-.09c.32-.4.09-.65-.09-.85a1.41,1.41,0,0,1-.36-.58c-.07-.24.17-.52.41-.8s.49-.57.46-.88a.58.58,0,0,0-.24-.42s-.14-.11-.81-.11c0,0-2.91,0-3.22.74-.1.22-.46.35-1,.35A4,4,0,0,1,52.93,23l-.14,0c-.55,0-.83.93-1.14,2-.2.7-.48,1.67-.76,1.74l-.17,0h0c-.06,0-.07,0-.12-.16a.64.64,0,0,0-.69-.5h0c-.64,0-.93,1.34-1.26,3.2a6.64,6.64,0,0,1-.23,1.08,18.89,18.89,0,0,1-3.17,3.28l-.27.29c-2.75,3-3.77,3.66-4.14,3.66-.06,0-.08,0-.09-.06-.24-.5,1.9-2.26,2.93-3.11s1.4-1.16,1.45-1.37a.31.31,0,0,0-.05-.25c-.15-.19-.5-.21-1.07-.23h-.18l.21-.09c1.37-.57,2.21-1.21,2.26-1.72a.45.45,0,0,0-.22-.43l0-.05c0-.09.34-.4.57-.6a4.45,4.45,0,0,0,1.84-2.79v-.09l-.06-.06c-.15-.17-1-.17-1.07-.17a2.84,2.84,0,0,0-1.9.56,4.64,4.64,0,0,1-1,.82l0-.11c0-.19-.09-.62-.62-.51-.91.18-1.1,1.34-1.26,2.37a3.45,3.45,0,0,1-.4,1.43.41.41,0,0,1-.32.19,1.4,1.4,0,0,1-.55-.22,1.9,1.9,0,0,0-1.15-.33c-.72.09-.73,1.8-.5,5.13,0,.57.08,1.15.06,1.25a.65.65,0,0,0,0,.31c0,.39.14,1.12-1.56,3.24v0a4.2,4.2,0,0,0-.7-2.87c-.22-.32-.42-.5-.61-.53h-.06c-.48,0-1,.81-1.19,1.25-.25-.16-.2-.8-.15-1.36s.1-1.26-.25-1.51a.67.67,0,0,0-.41-.13c-.23,0-.81.1-1.38,1a2,2,0,0,0-.14.32,1.18,1.18,0,0,1-1.27,1c-.49,0-.65.51-.8,1s-.34,1-.73,1A.51.51,0,0,0,30,40c-.28.36-.08,1.17.14,2,.12.48.32,1.26.2,1.39l-.09,0c-.8-.28-1.27-.34-1.56,0s-.34.75-.3,1.66a14.72,14.72,0,0,0,1.44,4.42,9.23,9.23,0,0,1,.65,1.7c-.06.16-.18.53-.33,1-.31,1-.77,2.48-1.23,3.79-.37,1-.9,2.87-1.36,4.49-.33,1.17-.71,2.46-.9,3a4.39,4.39,0,0,1-.29-2,.62.62,0,0,1,.31-.48c.94-.43,1.32-2.14,1.28-2.65a.32.32,0,0,0-.18-.29l-.3,0a1.42,1.42,0,0,1-.32-.07s0-.13.34-.54c0,0,2-2.41,1.7-3-.08-.18-.27-.22-.58-.08-.48.21-.62.16-.62.15s0-.29.18-.56A2.74,2.74,0,0,0,28.42,52c-.12-.22-.38-.24-.64,0l0,0c-.21,0-.51-1.1-.65-1.56a5.28,5.28,0,0,0-.37-1.07,1.05,1.05,0,0,0-.8-.54c-.7,0-1.22,1.06-1.58,3.24-.27,1.71-.6,1.89-.73,1.89a.9.9,0,0,1-.24-.07c-.21-.1-.48-.13-.61.09-.25.41,0,1,.26,1.72A10.29,10.29,0,0,1,23.7,58c.11.69,0,.86,0,.91s0,0-.12,0h-.35a.7.7,0,0,0-.68.41c-.62,1.21,1.4,2.63,2.16,3.16l.05,0a4.25,4.25,0,0,1,1.05,1.81c0,.43.17,5.8.14,6.9s.41,7.72.53,9.45A2.1,2.1,0,0,1,25.63,79a6.28,6.28,0,0,1,.29-1.63c.15-.5.25-.87,0-1.15a.55.55,0,0,0-.48-.22,2.34,2.34,0,0,0-.45.07,1.88,1.88,0,0,1-.37.06.25.25,0,0,1-.14,0,1.35,1.35,0,0,1-.2-.84,1.29,1.29,0,0,1,.24-.91c.46-.39,1.47-2,.8-2.87a.75.75,0,0,0-.54-.36.62.62,0,0,0-.28.09.82.82,0,0,1-.68,0c-.07,0-.1-.06-.11-.09-.1-.23.17-.8.39-1.27.34-.72.65-1.4.3-1.79a.75.75,0,0,0-.57-.28,1,1,0,0,0-.42.11l-.1.06s0,0,0-.08l-.06-.17c-.24-.75-.49-1.43-.94-1.43s-.56.31-.81,1c-.35,1-.64,1-.83,1h-.12c-.32,0-.56.12-.68.71a6.1,6.1,0,0,0,.39,3.13,2.73,2.73,0,0,1,.21.93l-.11-.1a.86.86,0,0,0-.57-.28.89.89,0,0,0-.36.1.53.53,0,0,0-.28.42c-.08.67.84,1.81,1.36,2.27a4.58,4.58,0,0,1,.94,2.44l-.17-.15a1.28,1.28,0,0,0-.73-.44.34.34,0,0,0-.25.11c-.12.13-.16.37-.12.78.14,1.38,1.9,2,3.32,2.57a8.2,8.2,0,0,1,1.19.5c.19.12.37.22.54.31.76.42,1.22.68,1.43,1.37s.56,2.27.78,3.23c.09.39.15.68.17.74.17.61.65,1.9,1.2,3.27a.39.39,0,0,0-.23-.17,1.36,1.36,0,0,0-1,.22.74.74,0,0,1-.35.15h0A7.49,7.49,0,0,1,27,88.64c-.1-1.31-.19-2.12-.49-2.36a.73.73,0,0,0-.46-.17,1.62,1.62,0,0,0-.77.28l-.17.1a4.26,4.26,0,0,1-.32-.4c-.27-.38-.55-.77-.9-.77a.49.49,0,0,0-.33.14c-.37.35-.22,1-.07,1.66a2.16,2.16,0,0,1,.11,1c0,.08-.09.12-.25.12h-.36a.5.5,0,0,0-.56.44c-.23,1.34,1.05,2.54,1.9,3.34a4.62,4.62,0,0,1,.73.75c-.08.09-.11.09-.11.09l-.08,0a.63.63,0,0,0-.28-.07A.88.88,0,0,0,24,93a.38.38,0,0,0-.14.33c0,.46.78,1,1.92,1.85a8.48,8.48,0,0,1,1.22.95,3.07,3.07,0,0,1-.33,0,1.48,1.48,0,0,0-.35,0,.45.45,0,0,0-.5.47c0,.54.58,1,1.23,1.37a8.45,8.45,0,0,1,.87.63,5,5,0,0,0,2.36.32,6.62,6.62,0,0,1,2.16.23c2.06,1.94,6.78,6.48,8.22,8.11l.06.07h0a1.86,1.86,0,0,0-1.12,0l-.38.08c-.22,0-.63-1-.85-1.51-.46-1.09-.76-1.75-1.22-1.75s-.55.43-.57.64v.1l-.2-.12a4.54,4.54,0,0,1-1-1.84c-.33-.84-.59-1.5-1-1.56a.53.53,0,0,0-.65.44.64.64,0,0,1-.44.47,2.17,2.17,0,0,1-.5-.29,2,2,0,0,0-.95-.45.52.52,0,0,0-.34.12c-.32.28-.13.78.09,1.3s.33.84.23,1.09-.12.16-.15.16a.79.79,0,0,1-.2,0,.64.64,0,0,0-.66.12.57.57,0,0,0-.09.51,2.67,2.67,0,0,0,1.45,1.57l.23.11c.66.3,2.41,1.11,2.5,1.45a2.54,2.54,0,0,1-.39,0c-.25,0-.43-.07-.53,0a.41.41,0,0,0-.13.38c.07.55,1,1.22,1.29,1.37a8.19,8.19,0,0,0,1.92.52c.38.07.74.14,1,.21a.44.44,0,0,1,.16.07c0,.07-.17.28-.27.4a2,2,0,0,0-.3.42.32.32,0,0,0,0,.35,2.26,2.26,0,0,0,1.84.75h.08c.66,0,.83-.12.94-.32,0,0,0,0,.14,0h0a.64.64,0,0,1,.43.12,1.43,1.43,0,0,0,.55.27.57.57,0,0,0,.18,0c.32,0,.49-.25.65-.48s.36-.47.68-.35a16.87,16.87,0,0,0,3.17.39l.47,0a13.13,13.13,0,0,1,3.55,1.58c.69.38,1.34.74,1.88,1,1.1.51,4,1.68,5.64,2.35l-.53.06A6.07,6.07,0,0,1,56,117c-.16,0-.33-.23-.51-.44a1.73,1.73,0,0,0-1.25-.76,5.25,5.25,0,0,0-1.73.34l-.42.12c-.25,0-.87-.66-1.29-1.09-.62-.67-1-1-1.31-1s-.53.38-.6.67a1.36,1.36,0,0,1-.13.42v0a1.32,1.32,0,0,0-1.19-1,1.45,1.45,0,0,0-.35,0l-.17,0c-1.89.42-2.88.66-3.06,1.06s1.26,2,2.67,2.93a2.37,2.37,0,0,0,1.21.4,1.88,1.88,0,0,0,.76-.18l.1,0a.37.37,0,0,1,0,.12A2.88,2.88,0,0,0,51,120.85a1.61,1.61,0,0,0,.44.06,4,4,0,0,0,1.74-.57,1.85,1.85,0,0,1,.7-.28c.08.06.08.06,0,.26a1.16,1.16,0,0,0-.21.77.84.84,0,0,0,.95.77,4.11,4.11,0,0,0,1-.15,5.55,5.55,0,0,0,2.31-1.93,7.3,7.3,0,0,1,2.17-2,.65.65,0,0,1,.29,0,6.14,6.14,0,0,1,2.47,1.11l.22.16.56-1.7-1.84-1.19-.09,0c-.05-.06,0-.36.11-.55a5,5,0,0,0,.21-.87,4.88,4.88,0,0,0-.43-1.58,5.58,5.58,0,0,1-.34-1.12c.24-1.14-.7-2-1.74-2.27a3,3,0,0,0-1,0,4,4,0,0,1-.54.06c-.15,0-.18,0-.18,0a4.34,4.34,0,0,0-2.33-1.63h-.06c-.31,0-.33.29-.35.43s0,.28-.22.28a4.86,4.86,0,0,1-.92-.2,6.06,6.06,0,0,0-1.49-.3.87.87,0,0,0-.73.28c-.47.61,3,3.83,3.09,3.87.2.18.61,0,1.05-.14a2.55,2.55,0,0,1,.69-.22h0l-.15.11a1.18,1.18,0,0,0-.63.89.67.67,0,0,0,.19.49c.29.3.88.43,1.89.43l.86,0h.5c.17,0,.2,0,.2,0a2.48,2.48,0,0,1,1,1.53l0,.12a.59.59,0,0,1-.24,0c-1.92,0-9.28-3.74-9.58-4.18a25.53,25.53,0,0,1-.64-3.73c.1-.37-.24-3.57-1.12-3.91a.82.82,0,0,0-.3-.07.78.78,0,0,0-.64.39c-.38-1-1.38-3.24-2.12-3.43a.55.55,0,0,0-.55.11.38.38,0,0,0-.11.18,6.17,6.17,0,0,0-2.79-1.63.44.44,0,0,0-.33.11c-.35.29,0,1.06.78,2.4a8.06,8.06,0,0,1,.74,1.54.77.77,0,0,1-.51-.12c-.25-.12-.46-.14-.55,0-.35.66.75,1.42,1.81,2.16a7.59,7.59,0,0,1,1.07.83,1,1,0,0,0-.31,0c-.23,0-.51.11-.56.68-.07.84,1.4,1.47,3.05,2.09.34.13.72.27.77.31.31.39.44.71.4.76a.5.5,0,0,1-.16,0c-2.25-.54-8.52-6.28-8.74-6.93a13.12,13.12,0,0,1,.51-4.09c.36-1.66.51-2.41.15-2.6a1.08,1.08,0,0,0-1,.11,1,1,0,0,1-.18.09,10.5,10.5,0,0,1,.47-1.5A3.7,3.7,0,0,0,40,94.14s-.22-1.69-.89-1.82c-.35-.07-.54.27-.67.5a1,1,0,0,1-.1.17,12.82,12.82,0,0,1-.23-1.85,7.14,7.14,0,0,0-.21-1.55.37.37,0,0,0-.35-.25.67.67,0,0,0-.35.14.5.5,0,0,1-.19.1,3.23,3.23,0,0,1-.26-.75c-.24-.91-.55-2-1.3-2-.44.05-.43.78-.39,2.07a6.79,6.79,0,0,1,0,1.23l-.13,0a1.86,1.86,0,0,0-1,.44c-.27.37.23,1.13,1.08,2.32l.61.87h-.28c-.29,0-.62,0-.8.15-.33.37.23,1.3,2.14,3.53l.2.23-.19,0c-.32,0-.65.07-.71.32-.17.67.71,1.7,1.48,2.61a10.77,10.77,0,0,1,.72.9c-.82-.27-3.14-3.86-4.54-6-.51-.8-1-1.48-1.31-2-.58-.84-1.22-5.29-.81-5.6a1,1,0,0,1,.58-.2,1.05,1.05,0,0,1,.41.08,2.77,2.77,0,0,0,1.07.17,2.15,2.15,0,0,0,1-.19l.1-.08h0a.16.16,0,0,0,.13-.06.17.17,0,0,0,0-.19,4.54,4.54,0,0,0,.74-2.32.77.77,0,0,0-.29-.68.92.92,0,0,0-.46-.1,4.2,4.2,0,0,0-2,.75,4.22,4.22,0,0,0-.72-2.81,1.08,1.08,0,0,0-.6-.53h-.07c-.66,0-1.62,1.8-1.75,3a.05.05,0,0,1,0,0,.28.28,0,0,0,0,.13V85c0,.56.33.85.85,1.11a2.44,2.44,0,0,1,.17,1.21.5.5,0,0,1-.09.26s0,0-.13-.07c-.7-.54-1.57-6-1.36-6.52.48-1.16,1.76-2.2,3.66-3.64a2.79,2.79,0,0,0,1-2.65.79.79,0,0,0-.67-.65A.27.27,0,0,1,33,74c-.16-.29.19-1,.3-1.31l.08-.19a1.2,1.2,0,0,1,.08-.15c.26-.51,1-1.84.45-2.75-.1-.18-.25-.43-.26-.47s0-.3-.64-1.83c-.41-1-.65-1.14-.87-1.14a.29.29,0,0,0-.23.1,2.63,2.63,0,0,0-.23,1.41,1.44,1.44,0,0,0-.9,1.29c0,.09,0,.2-.06.26a2,2,0,0,1-.39-.06.72.72,0,0,0-.62.08c-.25.15-.23.6-.09,2,.06.67.24,2.42,0,2.47A.6.6,0,0,1,29,73.4a.51.51,0,0,0-.37-.22.36.36,0,0,0-.25.1.51.51,0,0,0-.13.16c-.09-3.29-.09-6.79,0-7.49s2.7-2.29,4.42-3.4c2-1.27,2.78-1.82,2.87-2.14a.77.77,0,0,0,0-.6.63.63,0,0,0-.43-.26l-.23-.07a8.83,8.83,0,0,1,.84-1c.8-.9,1.71-1.92,1.63-2.58a.47.47,0,0,0-.48-.48l-.24,0a.34.34,0,0,1-.14,0,3.13,3.13,0,0,1,.56-.74c.47-.52.95-1.06.83-1.48a.6.6,0,0,0-.46-.39c-.42-.12-.35-.66-.22-1.34.08-.42.14-.76,0-.95s-.26-.18-.57-.06a1.84,1.84,0,0,0-1,1c-.14.29-.2.36-.37.36a1,1,0,0,1-.3-.06.52.52,0,0,0-.56.11c-.27.28-.24.9-.22,1.55a4.83,4.83,0,0,1,0,1l0,.07a1.78,1.78,0,0,1-.48-.29,2.09,2.09,0,0,0-1.06-.49.65.65,0,0,0-.36.1c-.3.19-.27.84-.1,2.4a7,7,0,0,1,0,2.33c-.17.24-.44.16-.81,0a2,2,0,0,0-1-.14C30,58.54,30,59.05,30,60a7.24,7.24,0,0,1-.26,2.12,5.64,5.64,0,0,1-1.13,2s0,0-.09-.23c-.61-2.87,4-12.49,5.36-14.66a39.55,39.55,0,0,1,4.35-5.63l-.06-.13.17.05s.1-.13.88-.13c.55,0,1.22.06,1.71.11l.63.05a8.08,8.08,0,0,1,.94.17,4.63,4.63,0,0,0,2.45.15.54.54,0,0,0,.33-.37c0-.29-.18-.56-.46-.88a2.49,2.49,0,0,1-.49-.7c0-.17,0-.22,0-.22a1.58,1.58,0,0,1,.44,0l.25,0a4.47,4.47,0,0,1,.72.25,4.88,4.88,0,0,0,1.46.43.5.5,0,0,0,.44-.19.72.72,0,0,0,.05-.73.5.5,0,0,1,0-.43c.09-.18.86-.29,1.32-.36a3,3,0,0,0,1.21-.3.54.54,0,0,0,.23-.37.93.93,0,0,0-.35-.65l-.17-.17c0-.12.37-.46.6-.69.53-.52,1-1,.77-1.39a.56.56,0,0,0-.48-.2,5.87,5.87,0,0,0-2.43,1c-.06,0-.2-.23-.28-.35a1.53,1.53,0,0,0-1-.84c-.32,0-.75.46-1.64,1.51a9.15,9.15,0,0,1-1.5,1.54.76.76,0,0,1,0-.17.71.71,0,0,0-.35-.77c-.42-.21-1.08.47-2.21,1.9l-.29.36a3.07,3.07,0,0,1-1.11.7.79.79,0,0,1-.34-.23l.15-.17c4.15-4.8,6.18-5.83,7.14-5.84h.24c2.32,0,3,.54,3.33.86a.9.9,0,0,0,.51.28c.48,0,.62-.31.72-.55a1.51,1.51,0,0,1,.13-.26,4.87,4.87,0,0,1,.93.54c.69.46,1.39.91,1.77.77.65-.23.45-1.19.31-1.76l.48.19a4.47,4.47,0,0,0,1.46.43.78.78,0,0,0,.44-.12.71.71,0,0,0,.22-1c-.06-.12-.12-.24-.09-.32l.1.06a2,2,0,0,0,.72.29h.09c.83,0,3.4-1.94,3.44-2.59s-1-.82-2.76-1.19l-.4-.09c-.39-.09-.88.31-1.39.75-.33.28-.75.64-1,.64h0c-.14,0-.17-.19-.22-.49s-.09-.73-.55-.79h-.07c-.5,0-1.12.72-1.7,1.45a3.21,3.21,0,0,1-.26.31,1.22,1.22,0,0,1-.92.07c-.08,0-.08,0-.07-.18a.91.91,0,0,0-.24-.74.4.4,0,0,0-.29-.13c-.32,0-.58.38-.91.88s-.62.92-.9,1a5.61,5.61,0,0,0-.59.22,3.78,3.78,0,0,1-1.07.32c-.06,0-.11,0-.12,0s0-.06,0-.24c.16-.86,5.5-3.23,6.82-3.46l.12,0a5.23,5.23,0,0,1,2-.16l.39.16a4.34,4.34,0,0,0,1.71.45.46.46,0,0,0,.37-.15c.17-.21.1-.55,0-.85a2.32,2.32,0,0,1,0-.3,2,2,0,0,1,.49,0c.53,0,1.27.05,1.76.09l.5,0a3.56,3.56,0,0,1,.53.2c.65.27,1.5.6,1.89.38.59-.32.27-1.44.17-1.73v0c2.36-.25,4.44-1.79,4.54-2.33a.27.27,0,0,0-.14-.3M31.05,47.89c0,.91,0,1.6,0,1.62a.2.2,0,0,1-.2.19h0a.19.19,0,0,1-.19-.2c0-.06,0-.71,0-1.57h0c-.27-.58-1.13-2.5-.91-3a.19.19,0,0,1,.25-.1.2.2,0,0,1,.1.26,6,6,0,0,0,.59,2c0-1,.1-2.17.19-2.88a4.93,4.93,0,0,1,.3-1c-.37-.54-.12-2.13,0-2.84a.2.2,0,0,1,.23-.15.19.19,0,0,1,.16.22,8.28,8.28,0,0,0-.19,2.25,47.8,47.8,0,0,1,2.53-4.7.19.19,0,0,1,.27-.06.18.18,0,0,1,.06.26A48.71,48.71,0,0,0,31.66,43a4.32,4.32,0,0,0,2.07-.89.19.19,0,0,1,.27,0,.18.18,0,0,1,0,.27,4.87,4.87,0,0,1-2.27,1l-.19,0a4.23,4.23,0,0,0-.25.86c-.1.75-.16,2-.19,3.14a4.57,4.57,0,0,0,1-1.24.19.19,0,0,1,.21-.18.2.2,0,0,1,.18.2c0,.44-1,1.39-1.44,1.77m8.43-5.19a.19.19,0,0,1,.18-.2A5.41,5.41,0,0,0,41,42.19l.11-.13A17.56,17.56,0,0,1,43,40.14a.18.18,0,0,1,.27,0,.2.2,0,0,1,0,.27,12.49,12.49,0,0,0-1.43,1.46c.66-.27,1.34-.58,1.92-.84a13.25,13.25,0,0,1,1.66-.7,4.17,4.17,0,0,0,.72-.31l.07-.2a7.39,7.39,0,0,1,1-1.91.21.21,0,0,1,.28,0,.19.19,0,0,1,0,.28,5.39,5.39,0,0,0-.79,1.48l.12,0c1.16-.66,2.5-1.54,2.52-1.56a.2.2,0,0,1,.27,0,.2.2,0,0,1-.06.27c-.06,0-.81.54-1.68,1.07a2.84,2.84,0,0,0,1.1-.41.2.2,0,0,1,.28,0,.19.19,0,0,1,0,.27,5.31,5.31,0,0,1-2.29.67,7.6,7.6,0,0,1-1.41.67,14.8,14.8,0,0,0-1.6.67c-.54.25-1.14.53-1.73.77a4.52,4.52,0,0,0,1.5.14.19.19,0,0,1,.24.12.18.18,0,0,1-.12.24,1,1,0,0,1-.37,0,10.82,10.82,0,0,1-1.9-.29,6.85,6.85,0,0,1-1.77.45h0a.19.19,0,0,1-.19-.19m21.2-15.12C63,27.2,67.54,26.06,67.59,26a.21.21,0,0,1,.24.14.2.2,0,0,1-.14.24c-.21,0-4.83,1.21-7.1,1.56a14,14,0,0,0,3,1.09.19.19,0,0,1,.14.23.18.18,0,0,1-.19.14h-.05c-1.41-.36-3.06-.89-3.4-1.4h0a11.88,11.88,0,0,0-3,.93,4.05,4.05,0,0,0,1.58.67.19.19,0,0,1,0,.38h0a4.76,4.76,0,0,1-2-.86c-1,.45-1.79.88-1.8.89l-.1,0a.21.21,0,0,1-.17-.1.19.19,0,0,1,.08-.26c.06,0,.8-.44,1.78-.88a.09.09,0,0,1,0-.06.19.19,0,0,1,.22-.06,13,13,0,0,1,3.32-1h.09a8.46,8.46,0,0,1,2.63-1.87.19.19,0,0,1,.26.09.17.17,0,0,1-.08.25,13.15,13.15,0,0,0-2.26,1.45m64.79,59.86a9.2,9.2,0,0,1-4.6,3.12l-2.38,1.26,0,.05s-2.31,3.91-2.56,4.3c-.51.8-6,8.71-6.09,8.79l-.3.42.51-.13a2.28,2.28,0,0,0,.46-.17l0,0c.21-.09,5-2.1,7.22-4.33a60,60,0,0,0,4.57-5.63,45.82,45.82,0,0,1-3.93,7.22c-1.25,1.7-4.33,2.29-6.57,2.71a7,7,0,0,0-2.47.7c-.6.5-5,4.44-5.17,4.59l-6.32,3.76.3.16a2.53,2.53,0,0,0,1,.27h0c.05,0,.35,0,.83,0a17.47,17.47,0,0,0,6.61-1.21,47.19,47.19,0,0,0,7.44-4.63,18.4,18.4,0,0,1-4.53,4.72,15,15,0,0,1-7,2.43,2.34,2.34,0,0,1-.42,0l-3.38-.78a14.94,14.94,0,0,0-1.9,0c-2.53.17-8.34,3.44-8.58,3.58l-.27.15.26.17a1.31,1.31,0,0,0,.69.2,1.26,1.26,0,0,0,.33-.05,18.19,18.19,0,0,0,5.18.81h.25a23.79,23.79,0,0,0,6.53-1.19,18.46,18.46,0,0,1-6.09,2.84,4.1,4.1,0,0,1-.76.06,16.84,16.84,0,0,1-3-.39l-1.54-1a3.16,3.16,0,0,0-1.85-1.24,8.14,8.14,0,0,0-1.38-.15l0-.76c.46-.12,1.73-.53,1.67-1.27s.51-5.07,2.25-6.25A60.14,60.14,0,0,1,97,107.22c-1.75,1.38-5,3.93-5.68,4.55-1,.87-2.36,4.43-2.42,4.58l.08,0,0,0,.19.33s4.11-1.85,5.63-2.59l.19-.1a16.76,16.76,0,0,0,3.89-2.27,1.72,1.72,0,0,0,.46-1.62c0-.47.36-5.31,2-6.38a37.92,37.92,0,0,0,4.16-3.33L102.91,104a37.75,37.75,0,0,0-3.48,7l.37.13a36.65,36.65,0,0,1,3.43-6.89c1.22-1.7,2.68-3.71,3.24-4.48a27.63,27.63,0,0,1-1.66,6.58c-1,2-4.53,3.8-4.57,3.82l-.06,0-.51,1.3.47-.25a33.2,33.2,0,0,0,5.78-4.1c2.45-2.24,3.65-3.72,3.57-4.38a21.76,21.76,0,0,1-.16-6.72c.26-1.68,2.52-6,3.73-8.14a52.07,52.07,0,0,0-1.88,6.5c-.34,2.35-1.09,7-1.1,7h0l-.15.87.35.15a76.2,76.2,0,0,0,4.59-6.71c.91-1.78,2.46-4.4,2.47-4.43l0,0-.14-1.72c0-.21.44-4.14.47-7.19a53,53,0,0,0-1.1-8.51c.56,1.09,1.39,2.75,1.79,3.79a15.23,15.23,0,0,1,1,4.65,47,47,0,0,1-1.35,5.66c-.15.36-.48,1.24-.27,1.55s.36.2.67,0c.81-.55,1.46-2.77,2.28-7.66.28-1.7.78-6.7.47-8a1.63,1.63,0,0,0-.84-1.28,4.53,4.53,0,0,1-.71-.53l-.54-.46c-1.25-1-3-2.49-3.32-4.31-.13-.66-.77-3.84-1.2-6C115.3,63,116.41,65.77,117,67a48.49,48.49,0,0,0,3.22,4.91l0,0v0l1.39,1.55,0-.57s-.29-3.63-.87-8.26c-.08-.6-.18-1.17-.29-1.71h0l0,0A23.73,23.73,0,0,0,119,58.18l-1.47-1.43-.08,0s-5.07-1.73-5.91-3.1c-1.09-1.77-3.07-5-4.08-6.58,1.39,1.13,4.85,3.94,5.82,4.89,1.21,1.21,4.88,5.15,4.91,5.19a.16.16,0,0,0,.1,0c.08.16.16.17.24.16.25,0,.3-.27.32-1.06-.21-3.2-4.64-9.13-7.09-10.76a3.23,3.23,0,0,0-2.8-.65L108,45h-.07c-1.51,0-6.06-3.32-8.16-4.92a74.1,74.1,0,0,1,7.3,2.84,25.59,25.59,0,0,0,4.39,1.72h.06l0,0,.85.4.22-.31s-3.46-3.51-5-5a23.22,23.22,0,0,0-3.47-2.59,3,3,0,0,0-1.84.25A9.19,9.19,0,0,1,99,38c-1.39-.06-5.62-2-7.49-2.94,1.37.4,5.84,1.68,7.36,1.48.13,0,3,.09,4.82.15h0a.17.17,0,0,0,.14-.06l.79,0-4.7-3.36S96.58,32,95.38,31.52c-.62-.24-1.65.26-2.89.88a10.75,10.75,0,0,1-4.29,1.47c-1.21,0-4.08-1.16-5.66-1.83,1.46,0,4.83,0,5.72.15l.36,0A38.2,38.2,0,0,0,95,31a.18.18,0,0,0,.14-.23.15.15,0,0,0-.1-.12l0-.17h0a.13.13,0,0,0,.06,0,.18.18,0,0,0,0-.23l3.06,1.42-.61-.87h0a.2.2,0,0,0,.08-.26S95.73,27,94.43,25A11.67,11.67,0,0,0,91,22c1.81.55,4,1.4,4.81,2.53,1,1.31,2.64,6.86,2.65,6.92l0,.07,2.9,1.67,5.37,4.25-.19-.6s-.11-.34-.26-.74a.43.43,0,0,0,0-.07c.31-1.46-2.63-6.21-3-6.74a23.94,23.94,0,0,0-4-4c2.1,1.17,5.67,3.45,6.52,5.82a65.64,65.64,0,0,1,1.47,6.66v.05l0,0c.11.12,2.84,3,3.21,3.35s2.48,3.36,3.3,4.51l.12.18.16-.14a1.51,1.51,0,0,0,.42-1.52,7.86,7.86,0,0,0,.09-3.61c-.27-1.82-2.37-5.41-3.57-7.34,1.83,2,4.28,5.16,4.24,7.73a24.79,24.79,0,0,1-.69,5.65l0,.09.06.07s2.09,2.79,3,4.35c.81,1.4,2.79,7.14,2.81,7.2l.38,0,.24-1.48,0,0s-.08-.19-.21-.47a.19.19,0,0,0,.17-.14,20.91,20.91,0,0,0,.1-8.19c0-.2-.1-.48-.16-.82A35.81,35.81,0,0,0,120,42.79c1.39,2.08,3.24,5.34,3.11,7.82a15.16,15.16,0,0,1-1.54,5.63l-.25,2.11a15.73,15.73,0,0,0,.11,4.37c.39,2,1.31,10.72,1.32,10.8l0,.36.28-.23a2.85,2.85,0,0,0,.65-.75l-.5,1.45a.16.16,0,0,0,0,.15c-.39.38-.64.61-.66.62l0,0v.07s-.38,4-.47,5.33c-.29,4.22-3.13,10.24-3.16,10.3l-.26.55.54-.31a6.49,6.49,0,0,0,1.58-1.28,2.74,2.74,0,0,0,.16-.28,37.23,37.23,0,0,0,4.83-6.34c1.69-3,2.2-7.83,2.22-8h0c.11-.21.21-.4.29-.57l-.06,5.12a12.62,12.62,0,0,1-2.66,7.72m-12.78,15.11a14,14,0,0,1,3.56-4c1.65-1.23,4.44-3,5.93-3.92a62.78,62.78,0,0,1-4.73,5.85,23,23,0,0,1-6,3.73c.46-.64.85-1.21,1.19-1.71m-11.14,10.93a31.66,31.66,0,0,1,3-2.14,15.52,15.52,0,0,1,3.6-1.41,32.83,32.83,0,0,0,5.08-1.1,43.47,43.47,0,0,1-6.86,4.21,16.57,16.57,0,0,1-5.84,1.17c.27-.17.58-.42,1-.73m-8.64,4a4.93,4.93,0,0,1,1.22-.14,10.31,10.31,0,0,1,1.88.21s.26,0,1.38.2c.85.15,3.14.31,4.39.39a21.7,21.7,0,0,1-7.18,1.46,17.83,17.83,0,0,1-4.94-.67,18.28,18.28,0,0,1,3.25-1.45m1.49-5.14c-1.37,1.17-3.93,3-5,3.76.39-1,1.4-3.35,2.14-4s5-4,6.34-5.08c-.67,1.35-2.17,4.19-3.48,5.31m19.14-24.63a55.59,55.59,0,0,1,.11,6.16c-.14,2.65-2.15,5.54-3,6.71.23-1.46.7-4.39,1-6.11a57,57,0,0,1,2-6.76m3.39,1.17c-.65-1.23-2.12-4.36-1.84-7,.11-1,.82-5.67,1.16-7.91a52.41,52.41,0,0,1,1.09,8.4c0,2.38-.29,5.31-.41,6.56M119.5,66a13.31,13.31,0,0,1,.84,5.37,47.21,47.21,0,0,1-3-4.56c-.71-1.41-2.21-5.27-2.72-6.61,1.42,1.43,4.45,4.6,4.86,5.8m-.68-2.2h0a.78.78,0,0,0,.61-.31,5.79,5.79,0,0,1,.87,1.18.23.23,0,0,0,.07.07c.44,3.5.71,6.4.81,7.58l-.49-.55a12.61,12.61,0,0,0-.82-5.9,9.46,9.46,0,0,0-1.55-2.26.76.76,0,0,0,.5.19m0-1.86c.26,0,.49.34.49.74a.76.76,0,0,1,0,.21.16.16,0,0,0-.12,0,.19.19,0,0,0,0,.26.42.42,0,0,1-.34.22v0c-.27,0-.49-.34-.49-.74s.22-.74.49-.74m-.37-.72c-.26,0-.49-.34-.48-.74s.22-.74.49-.74.48.34.48.74a1.12,1.12,0,0,1-.08.42h0l-.1.16a.39.39,0,0,1-.3.16M120,62.78l0,.13c.06.3.12.61.17.92-.22-.28-.46-.55-.62-.73a1.29,1.29,0,0,0,.08-.45,1,1,0,0,0-.88-1.12.55.55,0,0,0-.18,0,.83.83,0,0,0,.31-.16A2.76,2.76,0,0,1,120,62.78m-5.26-12.43c2,1.59,3.24,5.71,3.24,5.73s0,.23.07.33c-1-1.07-3.54-3.79-4.52-4.76s-4.22-3.6-5.7-4.8a58.18,58.18,0,0,1,6.91,3.5m-8.13-9.5A11.13,11.13,0,0,1,110.76,44a24.42,24.42,0,0,1-3.5-1.44,70.87,70.87,0,0,0-7.33-2.85,40.92,40.92,0,0,1,6.72,1.16M96.85,34c1.49,0,4.23,1.58,5.33,2.24-1.72-.06-3.31-.11-3.37-.1-1.4.17-5.65-1-7.1-1.44a28.48,28.48,0,0,1,5.14-.7m-6.41-3.41h.15c1.12,0,2.78.12,3.7.2-1.4.35-4.88,1.18-6,1-.93-.13-4.33-.15-5.79-.15a41,41,0,0,1,7.92-1.07m.36-1.46a6.18,6.18,0,0,0-1.25.1,16.46,16.46,0,0,1-2.66.17c-2.48-.08-5.94-1.24-6.73-2.26a4.18,4.18,0,0,0-2.2-.82A34,34,0,0,1,83,26.23c1.81.33,9.38,2.64,11.64,4.09a32.32,32.32,0,0,0-3.85-1.2m-8.29-4.51h.13A9.58,9.58,0,0,1,88,26.06l3.12,2.26a65.79,65.79,0,0,0-8.08-2.47,40.62,40.62,0,0,0-6,.14,14.88,14.88,0,0,1,5.38-1.38M92.82,27a12.39,12.39,0,0,1-2.07-3.57,5.39,5.39,0,0,0-1.66-1.87l.49.12a.16.16,0,0,0,.07.07s3.18,1.62,4.45,3.54c.92,1.39,2.15,3.51,2.79,4.63A32.3,32.3,0,0,1,92.82,27m13,8.16a6.21,6.21,0,0,0-1.23-1.08c-1.24-1-3.12-2.42-3.5-3.81a35.47,35.47,0,0,0-2.48-5.14A27.73,27.73,0,0,1,103,29.52a24.76,24.76,0,0,1,2.86,5.79,1,1,0,0,0-.1-.18m6.63,6a8.41,8.41,0,0,1-1.67-4.21,17,17,0,0,0-1-5l.18.18a.18.18,0,0,0,0,.14c0,.06,4,6.06,4.34,8.48a9.2,9.2,0,0,1,0,3,21.49,21.49,0,0,0-2-2.54M120.76,56a15.64,15.64,0,0,1-1.45-4.9,27.92,27.92,0,0,0,.26-3.8c0-1-.42-4.26-.62-5.81.82,1.28,1.41,4.28,1.71,5.83.06.33.12.62.16.82a20.38,20.38,0,0,1-.06,7.86m2.92,9a40.49,40.49,0,0,0,2.62-7.75c0,.11.08.25.13.39a.18.18,0,0,0,0,.1,44.15,44.15,0,0,1-.55,8.31c-.3,1.36-1.37,4.6-2,6.62a13.15,13.15,0,0,0-.13-1.52c-.22-1.8-.57-4.82,0-6.15m3.11-6.16c.71,2.45,1.59,6.35.91,9-.63,2.44-2.65,4.85-4,6.23.53-1.55,2.11-6.17,2.48-7.9a40.26,40.26,0,0,0,.57-7.29M122,86.56a23.25,23.25,0,0,1,1.67-4.21,47.82,47.82,0,0,0,3.74-6.21,22.33,22.33,0,0,1-2,6.88,34.68,34.68,0,0,1-4.05,5.47c.2-.55.43-1.22.67-1.93M109.64,37.45a1.3,1.3,0,0,0-.18-.23l-.13-.13-.28.27.13.13a1.64,1.64,0,0,1,.19.25l-.12,0c-.27,0-.49-.34-.49-.74s.22-.74.49-.74.49.34.49.74a.93.93,0,0,1-.1.42m19,36.29-.37-.08a62.57,62.57,0,0,1-4.87,8.46,22.47,22.47,0,0,0-1.73,4.32c-.39,1.16-.8,2.34-1.06,2.89l-.88.92,0,0-.21.15c.74-1.66,2.68-6.33,2.92-9.82.08-1.24.41-4.69.46-5.25.54-.47,4.27-3.9,5.21-7.51,1.07-4.15-1.54-11.16-1.65-11.45l-.26-.68-.12.71a37.89,37.89,0,0,1-2.72,8.37c-.64,1.42-.29,4.39-.06,6.35a10.81,10.81,0,0,1,.13,1.47,1.64,1.64,0,0,1-.33.48c-.19-1.75-.94-8.64-1.29-10.45a15.71,15.71,0,0,1-.11-4.25l.23-2a15.25,15.25,0,0,0,1.57-5.76c.21-4.05-4.47-9.87-4.67-10.12l-.44-.54.09.69c0,.05.71,5.27.73,6.61a28,28,0,0,1-.26,3.76c0,1.95,1.61,5.4,1.85,5.9l-.1.6A64.17,64.17,0,0,0,118.08,51c-.83-1.43-2.62-3.86-3-4.31A25.53,25.53,0,0,0,115.8,41c.07-4.26-6.1-9.78-6.36-10l-.31.22a17,17,0,0,1,1.24,5.7,8.64,8.64,0,0,0,1.76,4.44,16.08,16.08,0,0,1,2.14,2.92,1.1,1.1,0,0,1-.15,1c-.6-.85-2.86-4-3.2-4.36l-.15-.16,0-.1a13.71,13.71,0,0,0-.88-2.85,1.28,1.28,0,0,0,.26-.8.91.91,0,1,0-.88,1.12.67.67,0,0,0,.31-.07,11.74,11.74,0,0,1,.69,2.17l-2.49-2.62A58.1,58.1,0,0,0,106.28,31c-1.26-3.55-8-6.73-8.29-6.87l-.55-.25.3.52a47.69,47.69,0,0,1,3,6c.42,1.52,2.36,3,3.64,4a7.24,7.24,0,0,1,1.14,1,7,7,0,0,1,.5,1L101.6,32.9l-2.79-1.61c-.22-.69-1.75-5.66-2.69-7C94.51,22.14,88.51,21,88.26,21l-.15.35a7,7,0,0,1,2.28,2.23,12.49,12.49,0,0,0,2.15,3.69,33.21,33.21,0,0,0,4.24,3.05l.27.38-5.57-2.58L88.3,25.77a9.94,9.94,0,0,0-5.65-1.54h-.14A17,17,0,0,0,76,26.11l-.61.31.68,0c1.28.09,3.44.41,3.82.9.86,1.1,4.41,2.32,7,2.41a17,17,0,0,0,2.72-.18,6.29,6.29,0,0,1,1.17-.1,20.15,20.15,0,0,1,2.76.84c-.92-.07-2.08-.15-2.94-.15h-.15a44.85,44.85,0,0,0-9.12,1.35l-.51.14.48.22c.21.1,5.11,2.36,6.91,2.36h.06a11.21,11.21,0,0,0,4.41-1.52,7,7,0,0,1,2.33-.9.55.55,0,0,1,.24,0c1.19.44,4.47,1.74,4.49,1.74l3.59,2.57-.5,0c-.46-.29-4.06-2.51-6-2.57a37.62,37.62,0,0,0-6.42,1l-.52.12.48.24c.27.14,6.68,3.35,8.56,3.43a9.33,9.33,0,0,0,3.54-.6,2.82,2.82,0,0,1,1.56-.25A22.6,22.6,0,0,1,107.41,40c1.07,1,3.13,3.09,4.22,4.19l-.27-.12c-.28-.35-2.33-2.84-4.58-3.6a51.3,51.3,0,0,0-8.19-1.33l-.65-.06.51.4c.3.25,7.59,6,9.59,5.84.39,0,.71-.07,1-.11a8,8,0,0,1,.86-.07,2.83,2.83,0,0,1,1.68.66c2.34,1.55,6.73,7.42,6.92,10.45v.08c0-.12,0-.24-.08-.36s-1.26-4.27-3.38-5.94c-1.38-1.08-8-4-8.28-4.13l-.57-.25.33.53s3.23,5.17,4.73,7.61c.88,1.43,5.55,3.07,6.08,3.25l1.37,1.31a21.58,21.58,0,0,1,1.09,3.22,4.36,4.36,0,0,0-.58-.51,1.54,1.54,0,0,0,.15-.63.91.91,0,1,0-1.76,0,1,1,0,0,0,.87,1.12h0a.55.55,0,0,0,.18,0,1.1,1.1,0,0,0-.69,1.1,1.26,1.26,0,0,0,.22.73c-1.64-1.92-3.84-4.08-4-4.22l-.45-.44.12.62s1.4,6.94,1.6,8c.38,1.94,2.15,3.43,3.44,4.52.2.16.38.32.54.46a8.15,8.15,0,0,0,.76.57c.37.24.5.32.67,1,.27,1.09-.15,5.83-.47,7.79s-1.13,6.74-2.12,7.41l-.13.08a3.54,3.54,0,0,1,.32-1.17,46.5,46.5,0,0,0,1.36-5.76,15.32,15.32,0,0,0-1-4.82c-.65-1.65-2.35-4.87-2.37-4.9l-.28-.52-.09.58c0,.08-1.2,7.79-1.35,9.16-.35,3.4,1.9,7.33,2.17,7.79L117,91.1c-.22.38-1.6,2.74-2.44,4.4a69.32,69.32,0,0,1-4.08,6l0-.24c.39-.45,3.36-4,3.53-7.43a60.29,60.29,0,0,0-.21-7.42l-.06-.61-.31.53c-.17.29-4.15,7.24-4.52,9.6a22.52,22.52,0,0,0,.16,6.83c0,.19-.15,1-3.44,4a32.34,32.34,0,0,1-5.24,3.77l.07-.16c.51-.27,3.63-2,4.67-4S106.94,99.21,107,99l.07-.55-.4.38a48.5,48.5,0,0,1-5.54,4.62c-1.92,1.22-2.22,6.49-2.23,6.72v0l0,0a1.29,1.29,0,0,1-.37,1.27,15,15,0,0,1-3.77,2.18l-.19.09c-.85.42-2.5,1.18-3.8,1.77,1.24-.89,2.89-2.11,3.9-3,1.79-1.54,3.83-6,3.92-6.16l.21-.47-.47.21a79.34,79.34,0,0,0-8.11,4.15c-2,1.37-2.48,5.9-2.42,6.6,0,.41-1,.78-1.52.9l-.14,0,0,1.47.22,0a5.88,5.88,0,0,1,1.49.14,2.79,2.79,0,0,1,1.62,1.11l1.67,1,0,0a16,16,0,0,0,3.15.42,4.19,4.19,0,0,0,.84-.07c3.5-.67,7.44-3.75,7.6-3.87l.4-.32-.51,0s-4-.23-5.17-.43-1.41-.2-1.39-.2a9.45,9.45,0,0,0-1.93-.21,5.21,5.21,0,0,0-1.32.15,17.15,17.15,0,0,0-3.45,1.56.93.93,0,0,1-.63.17c1.34-.74,6-3.19,8-3.33h.6c.63,0,1.21,0,1.21,0l3.35.77a2.37,2.37,0,0,0,.51,0,15.46,15.46,0,0,0,7.25-2.5,19.21,19.21,0,0,0,5.09-5.55l.28-.49-.52.22a28.94,28.94,0,0,1-6.41,1.56,15.37,15.37,0,0,0-3.75,1.46,30.06,30.06,0,0,0-3.08,2.17,7.57,7.57,0,0,1-1.29.9,2.31,2.31,0,0,1-1.35,0l5.72-3.4s4.6-4.11,5.2-4.61a7.67,7.67,0,0,1,2.28-.61c2.31-.44,5.47-1,6.82-2.86A55.12,55.12,0,0,0,123.26,94l.23-.56-.51.32s-4.63,2.82-7,4.56a13.92,13.92,0,0,0-3.64,4c-.36.53-.77,1.12-1.26,1.8a1.85,1.85,0,0,1-.59.5c1.27-1.82,5.28-7.57,5.72-8.27.24-.37,2.26-3.8,2.54-4.26L121,90.94a9.63,9.63,0,0,0,4.79-3.25,12.68,12.68,0,0,0,2.76-8Zm-25.14-4.69v13h1.7v4.2H97.41v-4.2h1.66V72.8l-5.5,11.11L88.13,72.83v9.23h1.7v4.2H82.1v-4.2h1.65v-13H82.19v-4.2H89l4.59,9.39,4.57-9.39h7v4.2Zm-26.34,22-2,1.92V53l2,1.94ZM54.42,52.34l-2-1.94H95.32l-2.54,1.94ZM96.36,60.2l-2-1.85V53.42l2-2Zm-16,32.7,2-2v5.47l-2-1.85ZM79.05,56.85h9.83V62h9.35V48.52H50.56V62h9.29V56.85h9.9V89.1H64.51v9.18H84.29V89.1H79.05ZM53.71,75.66,55.31,72l1.6,3.65Zm4.71,10.59h8.34V82H64.44L58.72,69h1.11V64.77h-9.2V69h1.26L46.17,82H43.8v4.21h8.33V82H50.92l.95-2.17h6.88l1,2.17H58.42Z" transform="translate(-2.86 -1.85)"></path><path class="cls-1" d="M260.13,136a24.3,24.3,0,0,0,7.54-1,1.48,1.48,0,0,0,1.09-1.22,39.55,39.55,0,0,0,.92-5.57c0-.33-.08-.63-.38-.63s-.42.17-.54.84a6.91,6.91,0,0,1-1.43,2.76c-1.67,1.93-3.93,2.35-7.66,2.35-5.62,0-13.2-4.94-13.2-14.92,0-4.06.79-8,3.85-10.85,1.85-1.67,4.23-2.6,7.88-2.6,3.85,0,7.12,1.14,8.51,2.6a6,6,0,0,1,1.63,3.86c0,.58.08.92.42.92s.46-.34.5-1c.08-.84,0-3.15.13-4.53s.21-2,.21-2.3-.17-.46-.63-.51c-1.26-.12-2.6-.5-4.19-.71a41.67,41.67,0,0,0-6.08-.42c-6.24,0-10.22,1.68-13.24,4.44a16.61,16.61,0,0,0,.29,23.85c3.82,3.31,8.64,4.56,14.38,4.56M291,136c10.64,0,17.35-7.58,17.35-17.18s-6.5-15.67-16.93-15.67c-12.58,0-17.31,9.26-17.31,16.43C274.08,127,278.94,136,291,136m1.76-2.09c-8.05,0-12.87-6.92-12.87-15.63,0-10.44,5.49-13.12,10.31-13.12,6.87,0,12.28,5.83,12.28,15.21,0,12.11-6.79,13.54-9.72,13.54m21.95-2.69c-.21,1.43-.54,3.07-1.72,3.32a5.56,5.56,0,0,1-1.25.12c-.42,0-.67.09-.67.3,0,.37.33.46.75.46,1.34,0,3.35-.13,4.15-.13s2.64.13,4.4.13c.63,0,1-.09,1-.46,0-.21-.3-.3-.63-.3a7.92,7.92,0,0,1-1.76-.21c-.72-.16-1.26-.54-1.26-1.34a15.49,15.49,0,0,1,.13-2L320,114.81h.17c1.47,3.14,4,8.09,4.36,9,.5,1.17,3.81,7.58,4.82,9.51.67,1.26,1.09,2.1,1.47,2.1s.58-.38,1.54-2.35l9.14-18.69h.17l2.51,18.23c.17,1.17,0,1.72-.21,1.8s-.46.25-.46.46.25.38,1.22.46c1.67.13,7.46.21,8.5.21.59,0,1.09-.12,1.09-.46s-.29-.29-.67-.29a8.67,8.67,0,0,1-2.6-.42c-1.25-.38-1.67-1.59-2.05-4.24l-3.81-25.64c-.13-.88-.38-1.3-.76-1.3s-.58.34-.92,1l-11.4,23.59-11.43-23.3c-.55-1.09-.8-1.3-1.14-1.3s-.58.38-.71,1.09Zm46.3-8c0,3.86,0,7.17-.2,8.93-.17,1.21-.38,2.14-1.22,2.3a6.49,6.49,0,0,1-1.51.17c-.5,0-.67.13-.67.34s.29.42.84.42c1.67,0,4.32-.13,5.28-.13s3.73.13,6.49.13c.46,0,.8-.13.8-.42s-.21-.34-.67-.34a16.55,16.55,0,0,1-2.14-.17c-1.26-.16-1.51-1.09-1.63-2.26-.21-1.8-.21-5.11-.21-9V106.52c0-.47.12-.72.33-.8a5.81,5.81,0,0,1,1.64-.17,6.21,6.21,0,0,1,4.19,1.64,8,8,0,0,1,2.47,6.28c0,4.27-3.27,6.91-5.61,6.91-.88,0-1.18.13-1.18.46s.3.34.5.38a6.63,6.63,0,0,0,.89,0c5.95,0,10.3-4.19,10.3-10.14a7.27,7.27,0,0,0-2.09-5c-.67-.63-2.56-2.39-7.8-2.39-1.92,0-4.35.12-6.07.12-1.17,0-3.82-.12-6-.12-.62,0-.92.08-.92.38s.25.37.71.37a8.16,8.16,0,0,1,1.64.13c1.38.29,1.72,1,1.8,2.39s.08,2.51.08,8.88Zm32.69-7.37c0-6.37,0-7.54.08-8.88s.42-2.18,1.55-2.39a10.53,10.53,0,0,1,1.64-.13c.5,0,.75-.08.75-.37s-.29-.38-.88-.38c-1.63,0-4.69.12-5.7.12s-3.77-.12-5.74-.12c-.63,0-.92.08-.92.38s.25.37.71.37a5.76,5.76,0,0,1,1.38.13c1.39.29,1.72,1,1.81,2.39s.08,2.51.08,8.88v7.37c0,3.86,0,7.17-.21,8.93-.17,1.21-.38,2.14-1.21,2.3a6.49,6.49,0,0,1-1.51.17c-.5,0-.67.13-.67.34s.29.42.84.42c.83,0,1.92-.09,2.89-.09s1.92,0,2.38,0c1.72,0,3.23,0,5.12.13s4.06.12,7.08.12c2.18,0,2.39-.21,2.64-1.13a33.78,33.78,0,0,0,.63-4.82c0-.5,0-.71-.34-.71s-.42.25-.46.63a5.24,5.24,0,0,1-1.09,2.51c-1,1.13-2.68,1.18-4.9,1.18-3.27,0-4.36-.3-5.07-.93-.88-.75-.88-3.64-.88-9Zm20.11,7.37c0,3.86,0,7.17-.21,8.93-.17,1.21-.38,2.14-1.21,2.3a6.49,6.49,0,0,1-1.51.17c-.51,0-.67.13-.67.34s.29.42.83.42c.85,0,1.93-.09,2.9-.09s1.92,0,2.38,0c1.26,0,2.56,0,4.36.13s4.11.12,7.25.12c1.59,0,2,0,2.27-1.09a34.41,34.41,0,0,0,.54-4.65c0-.42,0-.75-.34-.75s-.37.16-.46.63c-.29,1.71-.79,2.59-1.88,3.1a10.69,10.69,0,0,1-3.94.5c-4.28,0-4.95-.63-5-3.52,0-1.22,0-5.07,0-6.5V120c0-.25,0-.41.25-.41,1,0,5.16,0,5.95.12,1.55.17,2.14.8,2.35,1.64a13.78,13.78,0,0,1,.17,1.5c0,.21.08.38.37.38s.38-.46.38-.79.13-2,.17-2.81c.17-2.14.33-2.81.33-3.06s-.12-.34-.29-.34-.38.21-.67.55a3,3,0,0,1-2,.63c-1,.08-5.78.08-6.7.08-.26,0-.3-.17-.3-.46v-10.6c0-.29.08-.42.3-.42.83,0,5.23.08,5.94.17,2.1.25,2.52.75,2.81,1.51a4.44,4.44,0,0,1,.25,1.5c0,.38.09.59.38.59s.38-.25.42-.46c.08-.5.17-2.35.21-2.76a26,26,0,0,1,.33-2.73c0-.21,0-.38-.25-.38a4.11,4.11,0,0,0-.67.17,16.41,16.41,0,0,1-1.8.25c-.8,0-9.13,0-10.48,0-.58,0-1.54,0-2.63-.08s-2.27,0-3.4,0c-.63,0-.92.08-.92.38s.25.37.71.37a8.16,8.16,0,0,1,1.64.13c1.38.29,1.71,1,1.8,2.39s.08,2.51.08,8.88ZM458.16,108c1.25-1.84,2.09-3,3-3.27a6,6,0,0,1,1.51-.25c.42,0,.67-.12.67-.37s-.29-.38-.75-.38c-1.55,0-3.27.12-4.11.12s-2.55-.12-4.19-.12c-.58,0-.88.12-.88.38s.25.37.5.37a5,5,0,0,1,1.35.13.93.93,0,0,1,.71.75,3.62,3.62,0,0,1-.46,1.59c-.63,1.18-4.48,7-5.7,8.85-1.64-2.85-3.52-5.91-5.32-9.26a3.25,3.25,0,0,1-.42-1.22.68.68,0,0,1,.5-.67,3.78,3.78,0,0,1,1.13-.17c.38,0,.63-.08.63-.37s-.25-.38-.84-.38c-1.55,0-3.89.12-4.48.12-2,0-5.36-.12-6.37-.12-.54,0-.84.08-.84.33a.37.37,0,0,0,.42.42,6.38,6.38,0,0,1,1.76.3,6.23,6.23,0,0,1,3.48,3.14l7.21,11.94-8,11.44c-1.42,2-2.22,2.81-3.43,3.14a6.47,6.47,0,0,1-1.55.21c-.34,0-.59.13-.59.38s.21.38.63.38h.71c.67,0,2.72-.13,3.52-.13,1.05,0,3.69.13,3.94.13h.75c.55,0,.84-.09.84-.38s-.25-.38-.5-.38a6.78,6.78,0,0,1-1-.08,1,1,0,0,1-.79-.71,3.15,3.15,0,0,1,.58-1.76l6.21-10c1.93,3.14,4.31,7.29,6.62,11.4.29.54.12.92-.09,1-.37.09-.58.21-.58.46s.33.38,1.42.42c3.23.09,6.54.09,7.55.09h1.25c.46,0,.8-.13.8-.42s-.25-.34-.55-.34a5.45,5.45,0,0,1-1.59-.25,4.41,4.41,0,0,1-2.43-1.76c-1-1.34-7.84-12.7-9.18-14.75Z" transform="translate(-2.86 -1.85)"></path><path class="cls-1" d="M181.46,75.91c0,3.85,0,7.16-.21,8.92-.17,1.22-.38,2.14-1.22,2.31a7.1,7.1,0,0,1-1.51.16c-.5,0-.67.13-.67.34s.29.42.84.42c.84,0,1.93-.09,2.89-.09s1.93,0,2.39,0c1.05,0,2.51.13,4.11.26s3.31.24,4.81.24c7.76,0,12.11-3,14-4.94A16.63,16.63,0,0,0,211.5,71.8a15,15,0,0,0-4.06-10.64c-4.57-4.78-11.57-4.78-16.81-4.78-2.51,0-5.15.13-6.45.13s-3.81-.13-6-.13c-.62,0-.92.08-.92.38s.26.38.72.38a9.06,9.06,0,0,1,1.63.12c1.38.29,1.72,1,1.8,2.39s.09,2.51.09,8.88Zm5.23-8c0-3.31,0-7,.05-8.38a.76.76,0,0,1,.5-.84,11,11,0,0,1,2.72-.29c3.27,0,8,.5,11.9,4.19a14.27,14.27,0,0,1,4,10.48c0,4.31-.83,8.12-3.52,10.43-2.51,2.18-5.36,3-9.63,3-3.31,0-4.95-.88-5.49-1.68a9,9,0,0,1-.46-3.18c0-.8-.09-4-.09-8.47Zm33.57,8c0,3.85,0,7.16-.21,8.92-.17,1.22-.38,2.14-1.22,2.31a7.18,7.18,0,0,1-1.51.16c-.5,0-.67.13-.67.34s.3.42.84.42c.84,0,1.93-.09,2.89-.09s1.93,0,2.39,0c1.26,0,2.56,0,4.36.13s4.11.13,7.25.13c1.59,0,2,0,2.26-1.09a32.83,32.83,0,0,0,.55-4.66c0-.42,0-.75-.34-.75s-.38.17-.46.63c-.29,1.72-.8,2.6-1.89,3.1a10.69,10.69,0,0,1-3.94.5c-4.27,0-4.94-.63-5-3.52,0-1.21,0-5.07,0-6.49V72.6c0-.26,0-.42.25-.42,1,0,5.15,0,6,.12,1.55.17,2.14.8,2.35,1.64a11.49,11.49,0,0,1,.16,1.5.33.33,0,0,0,.38.38c.38,0,.38-.46.38-.79s.12-2,.17-2.81c.16-2.14.33-2.81.33-3.06s-.13-.33-.29-.33-.38.2-.67.54a3,3,0,0,1-2,.63c-1,.08-5.79.08-6.71.08-.25,0-.29-.17-.29-.46V59c0-.29.08-.42.29-.42.84,0,5.24.08,5.95.17,2.1.25,2.51.75,2.81,1.51a4.44,4.44,0,0,1,.25,1.5c0,.38.08.59.38.59s.37-.25.42-.46c.08-.5.16-2.35.2-2.76.13-1.93.34-2.43.34-2.73s0-.37-.25-.37a4.07,4.07,0,0,0-.67.16,14.83,14.83,0,0,1-1.8.25c-.8,0-9.14,0-10.48,0-.59,0-1.55,0-2.64-.09s-2.26,0-3.39,0c-.63,0-.92.08-.92.38s.25.38.71.38a9,9,0,0,1,1.63.12c1.38.29,1.72,1,1.8,2.39s.09,2.51.09,8.88Zm33.39,10.18c.8,2,1,2.55,1.59,2.55s.84-.67,1.93-3.1c.93-2.09,2.89-6.66,5.57-12.78,2.27-5.15,3.4-7.41,5-11.35,1.14-2.68,1.76-3.4,2.31-3.77a3.63,3.63,0,0,1,2.05-.5c.42,0,.67-.09.67-.38s-.33-.38-.88-.38c-1.25,0-3.22.13-3.94.13-.54,0-2.3-.13-4.4-.13-.79,0-1.17.08-1.17.42s.33.34.71.34a5.82,5.82,0,0,1,1.68.2.81.81,0,0,1,.54.8,5.05,5.05,0,0,1-.37,1.55c-1,2.77-6.46,16.26-8.26,20.87h-.17l-7.2-19a12.38,12.38,0,0,1-1-3.22,1,1,0,0,1,.42-.88,3.05,3.05,0,0,1,1.64-.29c.37,0,.62-.09.62-.38s-.46-.38-1-.38c-2.1,0-4.11.13-5.15.13-1.47,0-3.86-.13-6.08-.13-.63,0-1.09,0-1.09.38s.13.38.5.38a6.8,6.8,0,0,1,1.64.16c1.51.42,2.22.88,3.18,3.19Zm23.63-10.18c0,3.85,0,7.16-.2,8.92-.17,1.22-.38,2.14-1.22,2.31a7.18,7.18,0,0,1-1.51.16c-.5,0-.67.13-.67.34s.29.42.84.42c.84,0,1.93-.09,2.89-.09s1.93,0,2.39,0c1.25,0,2.56,0,4.36.13s4.1.13,7.25.13c1.59,0,2,0,2.26-1.09a32.84,32.84,0,0,0,.54-4.66c0-.42,0-.75-.33-.75s-.38.17-.46.63c-.3,1.72-.8,2.6-1.89,3.1a10.69,10.69,0,0,1-3.94.5c-4.27,0-4.94-.63-5-3.52-.05-1.21,0-5.07,0-6.49V72.6c0-.26,0-.42.25-.42,1,0,5.15,0,5.95.12,1.55.17,2.13.8,2.34,1.64a10.12,10.12,0,0,1,.17,1.5.33.33,0,0,0,.38.38c.37,0,.37-.46.37-.79s.13-2,.17-2.81c.17-2.14.34-2.81.34-3.06s-.13-.33-.3-.33-.37.2-.67.54-1,.54-2,.63-5.78.08-6.7.08c-.25,0-.29-.17-.29-.46V59c0-.29.08-.42.29-.42.84,0,5.24.08,5.95.17,2.09.25,2.51.75,2.8,1.51a4.24,4.24,0,0,1,.26,1.5c0,.38.08.59.37.59s.38-.25.42-.46c.09-.5.17-2.35.21-2.76.13-1.93.34-2.43.34-2.73s0-.37-.25-.37a4.07,4.07,0,0,0-.67.16,14.76,14.76,0,0,1-1.81.25c-.79,0-9.13,0-10.47,0-.59,0-1.55,0-2.64-.09s-2.26,0-3.4,0c-.62,0-.92.08-.92.38s.25.38.72.38a9.06,9.06,0,0,1,1.63.12c1.38.29,1.72,1,1.8,2.39s.08,2.51.08,8.88ZM309,68.53c0-6.37,0-7.54.09-8.88s.42-2.18,1.55-2.39a11.6,11.6,0,0,1,1.63-.12c.5,0,.76-.09.76-.38s-.3-.38-.88-.38c-1.64,0-4.7.13-5.7.13s-3.77-.13-5.74-.13c-.63,0-.92.08-.92.38s.25.38.71.38a6.47,6.47,0,0,1,1.38.12c1.38.29,1.72,1,1.8,2.39s.09,2.51.09,8.88v7.38c0,3.85,0,7.16-.21,8.92-.17,1.22-.38,2.14-1.22,2.31a7.18,7.18,0,0,1-1.51.16c-.5,0-.67.13-.67.34s.3.42.84.42c.84,0,1.93-.09,2.89-.09s1.93,0,2.39,0c1.72,0,3.23,0,5.11.13s4.07.13,7.08.13c2.18,0,2.39-.22,2.65-1.14a33.36,33.36,0,0,0,.62-4.82c0-.5,0-.71-.33-.71s-.42.25-.46.63a5.29,5.29,0,0,1-1.09,2.51c-1.05,1.14-2.69,1.18-4.91,1.18-3.26,0-4.35-.3-5.06-.92-.89-.76-.89-3.65-.89-9Zm32.23,20.11c10.64,0,17.35-7.58,17.35-17.17s-6.5-15.68-16.93-15.68c-12.58,0-17.31,9.26-17.31,16.43,0,7.42,4.86,16.42,16.89,16.42M343,86.55c-8.05,0-12.87-6.91-12.87-15.63,0-10.43,5.49-13.11,10.31-13.11,6.87,0,12.28,5.82,12.28,15.21,0,12.11-6.79,13.53-9.72,13.53m24.34-10.64c0,3.85,0,7.16-.21,8.92-.16,1.22-.37,2.14-1.21,2.31a7.18,7.18,0,0,1-1.51.16c-.51,0-.67.13-.67.34s.29.42.84.42c1.67,0,4.31-.13,5.28-.13s3.73.13,6.49.13c.46,0,.8-.13.8-.42s-.21-.34-.67-.34a18.56,18.56,0,0,1-2.14-.16c-1.26-.17-1.51-1.09-1.64-2.27-.2-1.8-.2-5.11-.2-9V59.15c0-.47.12-.72.33-.8a6.56,6.56,0,0,1,5.83,1.47,8.07,8.07,0,0,1,2.47,6.28c0,4.28-3.27,6.92-5.62,6.92-.88,0-1.17.12-1.17.46s.29.33.5.37a5.2,5.2,0,0,0,.88.05c6,0,10.31-4.19,10.31-10.14a7.28,7.28,0,0,0-2.09-5c-.68-.63-2.56-2.39-7.8-2.39-1.92,0-4.36.13-6.07.13-1.18,0-3.82-.13-6-.13-.63,0-.92.08-.92.38s.25.38.71.38a9.1,9.1,0,0,1,1.64.12c1.38.29,1.71,1,1.8,2.39s.08,2.51.08,8.88Zm24.85,8c-.21,1.42-.54,3.06-1.72,3.31a5.61,5.61,0,0,1-1.25.12c-.42,0-.68.09-.68.3,0,.37.34.46.76.46,1.34,0,3.35-.13,4.15-.13s2.64.13,4.4.13c.63,0,1-.09,1-.46,0-.21-.29-.3-.63-.3a8.42,8.42,0,0,1-1.75-.2c-.72-.17-1.26-.55-1.26-1.35a17.14,17.14,0,0,1,.12-2l2.18-16.35h.17c1.47,3.14,4,8.09,4.36,9,.5,1.17,3.81,7.58,4.82,9.51.67,1.26,1.09,2.1,1.46,2.1s.59-.38,1.55-2.35L419,67h.17l2.51,18.23c.17,1.17,0,1.72-.21,1.8s-.46.25-.46.46.25.38,1.21.46c1.68.13,7.46.21,8.51.21.59,0,1.09-.12,1.09-.46s-.29-.29-.67-.29a8.62,8.62,0,0,1-2.6-.42c-1.26-.38-1.67-1.59-2.05-4.23l-3.81-25.65c-.13-.88-.38-1.3-.76-1.3s-.59.34-.92,1l-11.4,23.59-11.44-23.3c-.54-1.09-.79-1.3-1.13-1.3s-.58.38-.71,1.09Zm46.3-8c0,3.85,0,7.16-.21,8.92-.17,1.22-.37,2.14-1.21,2.31a7.18,7.18,0,0,1-1.51.16c-.5,0-.67.13-.67.34s.29.42.84.42c.83,0,1.92-.09,2.89-.09s1.93,0,2.39,0c1.25,0,2.55,0,4.35.13s4.11.13,7.25.13c1.6,0,2,0,2.27-1.09a32.84,32.84,0,0,0,.54-4.66c0-.42,0-.75-.33-.75s-.38.17-.46.63c-.3,1.72-.8,2.6-1.89,3.1a10.69,10.69,0,0,1-3.94.5c-4.27,0-4.94-.63-5-3.52,0-1.21,0-5.07,0-6.49V72.6c0-.26,0-.42.25-.42,1,0,5.16,0,5.95.12,1.56.17,2.14.8,2.35,1.64a10.12,10.12,0,0,1,.17,1.5c0,.22.08.38.37.38s.38-.46.38-.79.13-2,.17-2.81c.17-2.14.33-2.81.33-3.06s-.12-.33-.29-.33-.38.2-.67.54a3,3,0,0,1-2,.63c-1,.08-5.78.08-6.71.08-.25,0-.29-.17-.29-.46V59c0-.29.09-.42.29-.42.84,0,5.24.08,5.95.17,2.1.25,2.52.75,2.81,1.51a4.44,4.44,0,0,1,.25,1.5c0,.38.09.59.38.59s.38-.25.42-.46c.08-.5.17-2.35.21-2.76.13-1.93.33-2.43.33-2.73s0-.37-.25-.37a4.07,4.07,0,0,0-.67.16,14.24,14.24,0,0,1-1.8.25c-.79,0-9.13,0-10.47,0-.59,0-1.55,0-2.64-.09s-2.27,0-3.4,0c-.63,0-.92.08-.92.38s.25.38.71.38a9.1,9.1,0,0,1,1.64.12c1.38.29,1.72,1,1.8,2.39s.08,2.51.08,8.88Zm28.37-11H467c.75.79,5.4,5.91,10,10.43,4.36,4.32,9.72,9.81,12.36,12.32.46.46,1,.92,1.43.92s.54-.37.54-1.3l.46-26.44c0-2.35.38-3.22,1.55-3.56a4.78,4.78,0,0,1,1.26-.12c.5,0,.75-.13.75-.38s-.42-.38-1-.38c-2.06,0-3.65.13-4.11.13-.88,0-2.89-.13-5.07-.13-.63,0-1.09,0-1.09.38s.17.38.67.38a7.1,7.1,0,0,1,2.22.24c1,.43,1.39,1.22,1.43,3.78L488.81,80h-.21c-.72-.67-6.37-6.7-9.22-9.55-6.12-6.08-12.49-12.78-13-13.33-.71-.75-1.09-1.3-1.55-1.3s-.55.59-.55,1.43l-.37,24.68c0,3.64-.21,4.86-1.3,5.2a7.8,7.8,0,0,1-1.89.2c-.42,0-.67.09-.67.34s.38.42.92.42c2.18,0,4.15-.13,4.53-.13.8,0,2.47.13,5.19.13.59,0,1-.09,1-.42s-.25-.34-.71-.34a6.69,6.69,0,0,1-2.18-.29c-.84-.29-1.39-1.38-1.47-4.65Zm43.37,11c0,3.85,0,7.16-.21,8.92-.13,1.22-.38,2.14-1.22,2.31a7.1,7.1,0,0,1-1.51.16c-.5,0-.66.13-.66.34s.29.42.83.42c1.68,0,4.32-.13,5.28-.13,1.18,0,3.81.13,6.58.13.46,0,.8-.13.8-.42s-.21-.34-.67-.34a18.56,18.56,0,0,1-2.14-.16c-1.26-.17-1.51-1.09-1.63-2.27-.22-1.8-.22-5.11-.22-9V58.73l5.29.12c3.73.09,4.86,1.26,4.94,2.35l0,.46c0,.63.13.84.46.84s.34-.25.38-.67c0-1.09.13-4,.13-4.86,0-.63-.05-.88-.34-.88a9.1,9.1,0,0,0-1.13.21,20.65,20.65,0,0,1-2.89.21h-16.6c-1.38,0-3-.09-4.19-.21a10.34,10.34,0,0,1-1.8-.51c-.25,0-.37.26-.5.8-.09.34-.88,4.15-.88,4.82,0,.46.08.67.38.67s.37-.17.46-.5a4.8,4.8,0,0,1,.71-1.47c.63-.92,1.63-1.13,4.06-1.21l6.25-.17Z" transform="translate(-2.86 -1.85)"></path><path class="cls-1" d="M185.4,28.54c0,3.85,0,7.16-.21,8.92-.17,1.22-.38,2.14-1.22,2.31a7.08,7.08,0,0,1-1.51.17c-.5,0-.67.12-.67.33s.3.42.84.42c.84,0,1.93-.08,2.89-.08s1.93,0,2.39,0c.63,0,1.88,0,3.14.12s2.43.13,2.94.13c7.71,0,11.18-4.65,11.18-9.14,0-4.9-4.19-7.88-7.62-9,2.3-1.84,4.27-3.9,4.27-7.33,0-2.22-1.34-6.29-8.92-6.29-1.43,0-3.06.13-5.12.13-.83,0-3.47-.13-5.69-.13-.63,0-.93.09-.93.38s.26.38.72.38a9,9,0,0,1,1.63.12c1.38.3,1.72,1,1.8,2.39s.09,2.52.09,8.88Zm5-17c0-.46.09-.63.38-.71a6.34,6.34,0,0,1,1.38-.09c3.61,0,5.24,3.69,5.24,6.5a5.46,5.46,0,0,1-1.72,4.44,4.23,4.23,0,0,1-3,.79,10.62,10.62,0,0,1-2-.12c-.17,0-.3-.13-.3-.46Zm9.6,22c0,4.35-3.18,5.36-5.07,5.36a7.57,7.57,0,0,1-3.06-.5c-1.34-.55-1.47-1.26-1.47-4V24.47c0-.21.09-.29.26-.29.62,0,1,0,1.8,0a6,6,0,0,1,3.47,1A10,10,0,0,1,200,33.57m13.2-6.29c0,6.08,1.59,9.18,3.73,11.11,3.06,2.76,7.08,2.89,9.3,2.89a12.51,12.51,0,0,0,8.72-3c3.51-3,4-8,4-12.61V21.16c0-6.36,0-7.54.08-8.88s.42-2.18,1.55-2.39a6.54,6.54,0,0,1,1.22-.12c.5,0,.75-.09.75-.38s-.29-.38-.88-.38c-1.63,0-4.27.13-4.78.13,0,0-2.68-.13-4.82-.13-.58,0-.88.09-.88.38s.26.38.72.38a8.36,8.36,0,0,1,1.5.12c1.39.3,1.72,1,1.81,2.39s.08,2.52.08,8.88V26.4c0,4.32-.13,8.09-2.43,10.39a8.2,8.2,0,0,1-5.78,2.27,7.76,7.76,0,0,1-5.24-1.72c-2.06-1.68-3.27-4.23-3.27-10.31V21.16c0-6.36,0-7.54.09-8.88s.41-2.18,1.55-2.39a6.52,6.52,0,0,1,1.21-.12c.42,0,.67-.09.67-.38s-.29-.38-.92-.38c-1.51,0-4.15.13-5.16.13-1.25,0-3.89-.13-6.11-.13-.63,0-.92.09-.92.38s.25.38.71.38a9,9,0,0,1,1.63.12c1.38.3,1.72,1,1.81,2.39s.08,2.52.08,8.88Zm41.31,14a12.13,12.13,0,0,0,6.67-1.72,8.45,8.45,0,0,0,3.93-7.29c0-4-1.8-6.87-6.87-10.69l-1.17-.88c-3.48-2.64-4.44-4.1-4.44-6,0-2.51,1.88-4.32,5-4.32a5.3,5.3,0,0,1,4.57,2.06,5.08,5.08,0,0,1,1.09,2.76c0,.5.12.76.42.76s.46-.34.46-1.26c0-3.27.17-4.48.17-5,0-.29-.21-.42-.59-.5a20,20,0,0,0-5.57-.71c-5.82,0-9.68,3.31-9.68,7.91,0,3.4,1.59,6.33,6.2,9.94l1.93,1.51c3.48,2.72,4.1,4.64,4.1,6.7,0,2.22-1.84,4.78-5.61,4.78a5.78,5.78,0,0,1-6-4.24,8.81,8.81,0,0,1-.38-2.13c0-.34,0-.71-.42-.71s-.46.46-.5,1.09-.21,3.18-.21,5.48c0,.93.12,1.13.79,1.43a14.65,14.65,0,0,0,6.12,1.09M280.6,22.34a.26.26,0,0,1-.26-.3v-.88c0-6.36,0-7.54.09-8.88s.42-2.18,1.55-2.39a7.76,7.76,0,0,1,1.21-.12c.51,0,.76-.09.76-.38s-.3-.38-.88-.38c-1.64,0-4.28.13-5.28.13S274,9,271.75,9c-.58,0-.88.09-.88.38s.26.38.72.38a9,9,0,0,1,1.63.12c1.38.3,1.72,1,1.8,2.39s.09,2.52.09,8.88v7.38c0,3.85,0,7.16-.21,8.92-.17,1.22-.38,2.14-1.22,2.31a7.08,7.08,0,0,1-1.51.17c-.5,0-.67.12-.67.33s.3.42.84.42c1.68,0,4.32-.12,5.28-.12,1.17,0,3.81.12,6.54.12.5,0,.84-.12.84-.42s-.21-.33-.67-.33a18.36,18.36,0,0,1-2.14-.17c-1.26-.17-1.51-1.09-1.64-2.26-.21-1.81-.21-5.12-.21-9V24.85c0-.21.13-.25.26-.25h16a.24.24,0,0,1,.25.25v3.69c0,3.85,0,7.16-.21,8.92-.16,1.22-.37,2.14-1.21,2.31a7.08,7.08,0,0,1-1.51.17c-.5,0-.67.12-.67.33s.29.42.88.42c1.63,0,4.27-.12,5.24-.12,1.17,0,3.81.12,6.53.12.51,0,.84-.12.84-.42s-.21-.33-.67-.33a18.54,18.54,0,0,1-2.14-.17c-1.25-.17-1.5-1.09-1.63-2.26-.21-1.81-.21-5.12-.21-9V21.16c0-6.36,0-7.54.09-8.88s.41-2.18,1.54-2.39a8,8,0,0,1,1.22-.12c.5,0,.76-.09.76-.38s-.3-.38-.89-.38c-1.63,0-4.27.13-5.28.13s-3.77-.13-6-.13c-.58,0-.88.09-.88.38s.25.38.71.38a9.1,9.1,0,0,1,1.64.12c1.38.3,1.72,1,1.8,2.39s.08,2.52.08,8.88V22c0,.21-.12.3-.25.3Zm62.81,18.94a24.28,24.28,0,0,0,7.54-1A1.48,1.48,0,0,0,352,39.1a39.65,39.65,0,0,0,.92-5.58c0-.33-.08-.62-.38-.62s-.42.16-.54.83a7.07,7.07,0,0,1-1.43,2.77c-1.67,1.93-3.93,2.35-7.67,2.35-5.61,0-13.19-5-13.19-14.92,0-4.07.79-8,3.85-10.85,1.84-1.68,4.23-2.6,7.88-2.6,3.85,0,7.12,1.13,8.5,2.6a6,6,0,0,1,1.64,3.85c0,.59.08.92.42.92s.46-.33.5-1c.09-.84,0-3.14.13-4.53s.21-2,.21-2.3-.17-.46-.63-.5c-1.26-.13-2.6-.51-4.19-.72A41.81,41.81,0,0,0,342,8.43c-6.24,0-10.22,1.67-13.24,4.44a15.77,15.77,0,0,0-4.9,11.48A15.82,15.82,0,0,0,329,36.71c3.82,3.31,8.64,4.57,14.38,4.57m30.84,0c10.64,0,17.34-7.59,17.34-17.18S385.1,8.43,374.66,8.43c-12.57,0-17.3,9.26-17.3,16.42,0,7.42,4.86,16.43,16.89,16.43m1.76-2.1c-8.05,0-12.87-6.91-12.87-15.63,0-10.43,5.49-13.11,10.31-13.11,6.87,0,12.28,5.82,12.28,15.21,0,12.11-6.79,13.53-9.72,13.53M398,36.5c-.21,1.42-.54,3.06-1.71,3.31a5.26,5.26,0,0,1-1.26.13c-.42,0-.67.08-.67.29,0,.38.33.46.75.46,1.34,0,3.35-.12,4.15-.12s2.64.12,4.4.12c.63,0,1-.08,1-.46,0-.21-.29-.29-.62-.29a8.58,8.58,0,0,1-1.76-.21c-.72-.17-1.26-.55-1.26-1.34a17.31,17.31,0,0,1,.12-2l2.18-16.35h.17c1.47,3.15,4,8.09,4.36,9,.5,1.17,3.81,7.59,4.82,9.51.67,1.26,1.09,2.1,1.46,2.1s.59-.38,1.56-2.35l9.13-18.69H425l2.51,18.23c.17,1.17,0,1.72-.21,1.8s-.46.25-.46.46.25.38,1.21.47c1.68.12,7.46.21,8.51.21.59,0,1.09-.13,1.09-.47s-.29-.29-.67-.29a8.35,8.35,0,0,1-2.6-.42c-1.25-.38-1.67-1.59-2.05-4.23L428.47,9.73c-.13-.89-.38-1.3-.76-1.3s-.58.33-.92,1L415.39,33,404,9.73c-.54-1.09-.79-1.3-1.13-1.3s-.58.37-.71,1.08Zm46.3-8c0,3.85,0,7.16-.21,8.92-.16,1.22-.37,2.14-1.21,2.31a7.08,7.08,0,0,1-1.51.17c-.5,0-.67.12-.67.33s.29.42.84.42c.84,0,1.93-.08,2.89-.08s1.93,0,2.39,0c.63,0,1.88,0,3.14.12s2.43.13,2.93.13c7.72,0,11.19-4.65,11.19-9.14,0-4.9-4.19-7.88-7.62-9,2.3-1.84,4.27-3.9,4.27-7.33,0-2.22-1.34-6.29-8.92-6.29-1.43,0-3.06.13-5.12.13-.83,0-3.48-.13-5.7-.13-.62,0-.92.09-.92.38s.25.38.71.38a9.1,9.1,0,0,1,1.64.12c1.38.3,1.72,1,1.8,2.39s.08,2.52.08,8.88Zm5-17c0-.46.09-.63.38-.71a6.34,6.34,0,0,1,1.38-.09c3.6,0,5.24,3.69,5.24,6.5a5.46,5.46,0,0,1-1.72,4.44,4.25,4.25,0,0,1-3,.79,10.56,10.56,0,0,1-2-.12c-.17,0-.3-.13-.3-.46Zm9.6,22c0,4.35-3.19,5.36-5.07,5.36a7.54,7.54,0,0,1-3.06-.5c-1.34-.55-1.47-1.26-1.47-4V24.47c0-.21.09-.29.25-.29.63,0,1,0,1.8,0a6,6,0,0,1,3.48,1,10,10,0,0,1,4.07,8.34M485.12,30a.41.41,0,0,1,.42.29l3.35,8.63a.68.68,0,0,1-.38,1c-.42,0-.58.13-.58.38s.5.3,1.25.34c3.35.08,6.41.08,7.92.08s1.93-.08,1.93-.42-.21-.33-.54-.33a9.75,9.75,0,0,1-1.77-.17c-.88-.21-2.09-.8-3.68-4.57-2.68-6.37-9.39-23.13-10.39-25.43-.42-1-.68-1.34-1-1.34s-.67.46-1.17,1.67l-10.52,26c-.84,2.1-1.64,3.52-3.56,3.77-.34,0-.93.09-1.3.09s-.51.08-.51.33.26.42.8.42c2.18,0,4.49-.12,4.94-.12,1.3,0,3.1.12,4.45.12.46,0,.71-.08.71-.42s-.13-.33-.63-.33h-.63c-1.3,0-1.67-.55-1.67-1.3a8,8,0,0,1,.62-2.56l2.27-5.74c.08-.25.16-.33.37-.33Zm-8.51-2.1c-.17,0-.21-.12-.17-.29l3.86-10.27c0-.17.13-.38.25-.38s.17.21.21.38l3.77,10.31c0,.13,0,.25-.21.25Zm29.67.63c0,3.85,0,7.16-.21,8.92-.13,1.22-.38,2.14-1.22,2.31a7,7,0,0,1-1.51.17c-.5,0-.67.12-.67.33s.3.42.84.42c1.68,0,4.32-.12,5.28-.12,1.18,0,3.82.12,6.58.12.46,0,.8-.12.8-.42s-.21-.33-.67-.33a18.54,18.54,0,0,1-2.14-.17c-1.26-.17-1.51-1.09-1.63-2.26-.21-1.81-.21-5.12-.21-9V11.36l5.28.13c3.73.08,4.86,1.25,4.94,2.34l0,.46c0,.63.13.84.46.84s.34-.25.38-.67c0-1.09.12-4,.12-4.86,0-.63,0-.88-.33-.88a9.1,9.1,0,0,0-1.13.21,20.65,20.65,0,0,1-2.89.21H501.8c-1.39,0-3-.09-4.19-.21a10.59,10.59,0,0,1-1.81-.5c-.25,0-.37.25-.5.79-.08.34-.88,4.15-.88,4.82,0,.46.08.67.38.67s.37-.17.46-.5a4.8,4.8,0,0,1,.71-1.47c.63-.92,1.64-1.13,4.07-1.21l6.24-.17Z" transform="translate(-2.86 -1.85)"></path></svg> 